<svg width="13" height="20" viewBox="0 0 13 20" fill="none" xmlns="http://www.w3.org/2000/svg">
<path d="M0.999769 9.99902C0.991956 9.84667 1.03102 9.708 1.09547 9.57225C1.14235 9.46971 1.20876 9.37498 1.2947 9.29099C1.30837 9.27537 1.324 9.26072 1.34158 9.24607L11.3302 0.256522C11.7404 -0.11263 12.3732 -0.079426 12.7423 0.330744C13.1125 0.739936 13.0802 1.37277 12.6681 1.7429L3.49399 9.99902L12.6681 18.2551C13.0783 18.6282 13.1105 19.2591 12.7423 19.6693C12.3732 20.0794 11.7403 20.1126 11.3302 19.7435L1.34158 10.751C1.324 10.7373 1.30837 10.7217 1.29079 10.7041C1.21071 10.624 1.14821 10.5342 1.09938 10.4365V10.4346C1.03297 10.2979 0.999769 10.1475 0.999769 9.99902Z" fill="#DB563B"/>
</svg>
