<svg width="5" height="8" viewBox="0 0 5 8" fill="none" xmlns="http://www.w3.org/2000/svg">
<path d="M4.99954 3.99816V3.99913C4.99954 4.07335 4.98391 4.14659 4.95071 4.21495C4.92727 4.26573 4.89407 4.31359 4.85208 4.3546C4.84231 4.36437 4.83254 4.37316 4.82278 4.38195L0.829126 7.87609C0.734399 7.95909 0.617212 8.00011 0.500024 8.00011C0.360864 8.00011 0.222681 7.94249 0.12356 7.82921C-0.0580811 7.6212 -0.037085 7.30577 0.170923 7.12413L3.74075 4.00011L0.170923 0.877063C-0.037085 0.694934 -0.0580811 0.379016 0.12356 0.171496C0.305688 -0.0379765 0.621118 -0.0579961 0.829126 0.124133L4.82278 3.61827C4.83352 3.62804 4.84426 3.6378 4.85403 3.64757C4.89504 3.68859 4.92629 3.73448 4.95071 3.78331C4.98293 3.85167 4.99954 3.92491 4.99954 3.99816Z" fill="#DB563B"/>
</svg>
