<svg width="12" height="12" viewBox="0 0 12 12" fill="none" xmlns="http://www.w3.org/2000/svg">
<path d="M6 0C2.68628 0 0 2.68628 0 6C0 9.31366 2.68628 12 6 12C9.31366 12 12 9.31366 12 6C12 2.68628 9.31366 0 6 0ZM9.35364 4.35394L5.35364 8.35394C5.25598 8.4516 5.12805 8.50043 5.00012 8.50043C4.87219 8.50043 4.74426 8.4516 4.64661 8.35394L2.64661 6.35394C2.45129 6.15863 2.45129 5.84222 2.64661 5.64691C2.84192 5.4516 3.15833 5.4516 3.35364 5.64691L5.00012 7.2934L8.64661 3.64691C8.84192 3.4516 9.15833 3.4516 9.35364 3.64691C9.54895 3.84222 9.54895 4.15863 9.35364 4.35394Z" fill="#4B66AD"/>
</svg>
