<svg width="16" height="16" viewBox="0 0 16 16" fill="none" xmlns="http://www.w3.org/2000/svg">
<path d="M11 0C8.90656 0 6.67657 0.473755 6.12878 1.5H6.5C6.80164 1.5 7.08472 1.57166 7.34119 1.69122C7.89276 1.38043 9.11963 1 11 1C13.6245 1 15 1.74316 15 2C15 2.25684 13.6245 3 11 3C9.86438 3 8.97778 2.85852 8.32013 2.67981C8.43341 2.93066 8.5 3.20691 8.5 3.5C8.5 3.58228 8.48541 3.66052 8.47577 3.74023C9.25928 3.90802 10.1343 4 11 4C12.4793 4 14.0255 3.76263 15 3.2619V5C15 5.25684 13.6245 6 11 6C9.11963 6 7.89276 5.61957 7.34119 5.30878C7.08472 5.42834 6.80164 5.5 6.5 5.5H5.5V6.02319C5.66571 6.03149 5.84442 6.03314 6 6.04645V7.95355C5.68878 7.98016 5.36298 8 5 8C4.93542 8 4.88092 7.99451 4.81787 7.99365C4.46527 8.30499 4.00732 8.5 3.5 8.5C2.76489 8.5 2.12933 8.09888 1.78174 7.50787C1.27429 7.31378 1 7.11145 1 7C1 6.9101 1.17859 6.75989 1.51044 6.60345C1.50861 6.56848 1.5 6.53546 1.5 6.5V5.52203C0.605774 5.8504 0 6.3374 0 7V13C0 14.374 2.5918 15 5 15C5.49243 15 5.99115 14.9709 6.4751 14.9174C7.33154 15.655 9.2149 16 11 16C13.4082 16 16 15.374 16 14V2C16 0.625977 13.4082 0 11 0ZM6 13.9536C5.68878 13.9802 5.36298 14 5 14C2.37549 14 1 13.2568 1 13V11.2619C1.97455 11.7626 3.52069 12 5 12C5.33453 12 5.66809 11.9792 6 11.9515V13.9536ZM6 10.9536C5.68878 10.9802 5.36298 11 5 11C2.37549 11 1 10.2568 1 10V8.2619C1.97455 8.76263 3.52069 9 5 9C5.33453 9 5.66809 8.97919 6 8.95148V10.9536ZM15 14C15 14.2568 13.6245 15 11 15C8.37549 15 7 14.2568 7 14V12.2619C7.97455 12.7626 9.52069 13 11 13C12.4793 13 14.0255 12.7626 15 12.2619V14ZM15 11C15 11.2568 13.6245 12 11 12C8.37549 12 7 11.2568 7 11V9.2619C7.97455 9.76263 9.52069 10 11 10C12.4793 10 14.0255 9.76263 15 9.2619V11ZM15 8C15 8.25684 13.6245 9 11 9C8.37549 9 7 8.25684 7 8V6.2619C7.97455 6.76263 9.52069 7 11 7C12.4793 7 14.0255 6.76263 15 6.2619V8ZM0 3.5C0 3.22363 0.223633 3 0.5 3H3V0.5C3 0.223633 3.22363 0 3.5 0C3.77637 0 4 0.223633 4 0.5V3H6.5C6.77637 3 7 3.22363 7 3.5C7 3.77637 6.77637 4 6.5 4H4V6.5C4 6.77637 3.77637 7 3.5 7C3.22363 7 3 6.77637 3 6.5V4H0.5C0.223633 4 0 3.77637 0 3.5Z" fill="white"/>
</svg>
