<svg width="16" height="16" viewBox="0 0 16 16" fill="none" xmlns="http://www.w3.org/2000/svg">
<path d="M13.1704 0H6.82959C5.26953 0 4 1.26953 4 2.82959V4H2.82959C1.26953 4 0 5.26953 0 6.82959V13.1704C0 14.7305 1.26953 16 2.82959 16H9.17041C10.7305 16 12 14.7305 12 13.1704V12H13.1704C14.7305 12 16 10.7305 16 9.17041V2.82959C16 1.26953 14.7305 0 13.1704 0ZM11 13.1704C11 14.1792 10.1792 15 9.17041 15H2.82959C1.8208 15 1 14.1792 1 13.1704V6.82959C1 5.8208 1.8208 5 2.82959 5H4V9.17041C4 10.7305 5.26953 12 6.82959 12H11V13.1704ZM11 11H6.82959C5.8208 11 5 10.1792 5 9.17041V5H9.17041C10.1792 5 11 5.8208 11 6.82959V11ZM15 9.17041C15 10.1792 14.1792 11 13.1704 11H12V6.82959C12 5.26953 10.7305 4 9.17041 4H5V2.82959C5 1.8208 5.8208 1 6.82959 1H13.1704C14.1792 1 15 1.8208 15 2.82959V9.17041Z" fill="#DB563B"/>
</svg>
