<svg width="22" height="20" viewBox="0 0 22 20" fill="none" xmlns="http://www.w3.org/2000/svg">
<g clip-path="url(#clip0)">
<path d="M20.6413 8.70331C20.6842 8.78571 20.6686 8.88703 20.6026 8.95288L19.7765 9.779C19.7325 9.823 19.672 9.84577 19.61 9.84101C19.5586 9.83753 19.5101 9.81507 19.4741 9.779C19.467 9.77192 19.4602 9.76392 19.454 9.75599L16.5318 5.84986L14.9431 7.4386L15.678 9.52088C15.7146 9.62543 15.6659 9.74091 15.5646 9.78669L15.1372 9.98078C15.0557 10.0179 14.9603 9.99994 14.8977 9.93732C14.8927 9.93232 14.8876 9.9267 14.8829 9.92078L13.6964 8.45838C13.0709 8.87976 12.339 9.25135 12.0439 8.95612C11.7486 8.66095 12.1202 7.92908 12.5416 7.30353L11.0792 6.11707C11.0733 6.11231 11.0678 6.10743 11.0625 6.10218C11.0002 6.03986 10.982 5.94428 11.0191 5.86261L11.2134 5.43549C11.2595 5.33448 11.3747 5.28547 11.4794 5.32221L13.5613 6.05689L15.1501 4.46814L11.2443 1.54627C11.2362 1.53992 11.2285 1.53339 11.2212 1.52619C11.185 1.48999 11.1629 1.44184 11.1592 1.39032C11.1546 1.32843 11.1773 1.26777 11.2212 1.2237L12.0474 0.397587C12.1133 0.33173 12.2145 0.315922 12.2971 0.359074L16.8815 2.7367L18.5694 1.04883C18.9581 0.66016 20.3894 -0.355282 20.8724 0.127628C21.3553 0.610539 20.3398 2.04187 19.9511 2.43061L18.2644 4.12061L20.6413 8.70331ZM10.8723 10.1276C10.3894 9.64472 8.9581 10.6602 8.56937 11.0488L6.88151 12.7367L2.29715 10.359C2.21445 10.3159 2.11326 10.3317 2.0474 10.3976L1.22129 11.2237C1.17728 11.2678 1.15464 11.3284 1.15921 11.3903C1.16294 11.4418 1.18509 11.49 1.22129 11.5262C1.22849 11.5334 1.23618 11.5399 1.2443 11.5463L5.15006 14.4681L3.56138 16.0569L1.47941 15.3222C1.37473 15.2855 1.2595 15.3345 1.21341 15.4355L1.01908 15.8626C0.98203 15.9443 1.00022 16.0399 1.06254 16.1022C1.06785 16.1074 1.07328 16.1123 1.0792 16.1171L2.5416 17.3035C2.12021 17.9291 1.74869 18.661 2.04386 18.9561C2.33902 19.2513 3.0709 18.8798 3.69645 18.4584L4.88291 19.9208C4.88761 19.9267 4.89267 19.9323 4.89768 19.9373C4.9603 19.9999 5.0557 20.0179 5.13718 19.9808L5.56461 19.7867C5.66593 19.7409 5.71463 19.6254 5.67801 19.5209L4.94309 17.4386L6.53183 15.8499L9.45395 19.756C9.46018 19.7639 9.46695 19.7719 9.4741 19.779C9.51011 19.8151 9.55857 19.8375 9.60996 19.841C9.67197 19.8458 9.73252 19.823 9.77652 19.779L10.6026 18.9529C10.6686 18.887 10.6842 18.7857 10.6413 18.7033L8.26444 14.1206L9.95109 12.4306C10.3398 12.0419 11.3553 10.6105 10.8723 10.1276Z" fill="#DB563B"/>
</g>
<defs>
<clipPath id="clip0">
<rect width="22" height="20" fill="white"/>
</clipPath>
</defs>
</svg>
