<svg width="6" height="10" viewBox="0 0 6 10" fill="none" xmlns="http://www.w3.org/2000/svg">
<path d="M5.99989 4.99935C6.00379 4.92318 5.98426 4.85384 5.95203 4.78597C5.9286 4.7347 5.89539 4.68734 5.85242 4.64535C5.84559 4.63753 5.83778 4.63021 5.82899 4.62289L0.834846 0.128257C0.629768 -0.0563132 0.313362 -0.0397117 0.128791 0.165366C-0.0562672 0.369956 -0.040154 0.686363 0.165901 0.871421L4.75282 4.99935L0.165901 9.12728C-0.0391769 9.3138 -0.0552902 9.62923 0.128792 9.83431C0.313362 10.0394 0.629768 10.056 0.834846 9.87142L5.82899 5.37533C5.83778 5.36849 5.84559 5.36068 5.85438 5.35189C5.89442 5.31185 5.92567 5.26693 5.95008 5.2181C5.98328 5.14974 5.99989 5.07357 5.99989 4.99935Z" fill="#83909E"/>
</svg>
