<svg width="14" height="16" viewBox="0 0 14 16" fill="none" xmlns="http://www.w3.org/2000/svg">
<path d="M13.5 2H10V0.5C10 0.223633 9.77637 0 9.5 0H4.5C4.22363 0 4 0.223633 4 0.5V2H0.5C0.223633 2 0 2.22363 0 2.5V5.5C0 5.77637 0.223633 6 0.5 6H1V15.5C1 15.7764 1.22363 16 1.5 16H12.5C12.7764 16 13 15.7764 13 15.5V6H13.5C13.7764 6 14 5.77637 14 5.5V2.5C14 2.22363 13.7764 2 13.5 2ZM5 1H9V2H5V1ZM13 5H12.5C12.2236 5 12 5.22363 12 5.5V15H2V5.5C2 5.22363 1.77637 5 1.5 5H1V3H4.5H9.5H13V5ZM5 6.5V13.5C5 13.7764 4.77637 14 4.5 14C4.22363 14 4 13.7764 4 13.5V6.5C4 6.22363 4.22363 6 4.5 6C4.77637 6 5 6.22363 5 6.5ZM9.5 6C9.77637 6 10 6.22363 10 6.5V13.5C10 13.7764 9.77637 14 9.5 14C9.22363 14 9 13.7764 9 13.5V6.5C9 6.22363 9.22363 6 9.5 6Z" fill="white"/>
</svg>
