<svg width="25" height="18" viewBox="0 0 25 18" fill="none" xmlns="http://www.w3.org/2000/svg">
<path d="M24.5 15C23.1582 15 22.5908 15.6475 22.1348 16.167C21.7109 16.6504 21.4043 17 20.5 17C20.2117 17 19.997 16.9543 19.807 16.8902L22.8926 8.82422C22.9463 8.68359 22.9346 8.52734 22.8594 8.39648C22.7852 8.2666 22.6562 8.17676 22.5078 8.15234L20 7.7356V2.5C20 2.22363 19.7764 2 19.5 2H18V0.5C18 0.223633 17.7764 0 17.5 0H7.5C7.22363 0 7 0.223633 7 0.5V2H5.5C5.22363 2 5 2.22363 5 2.5V7.73566L2.49268 8.15234C2.34473 8.17676 2.21533 8.2666 2.14111 8.39648C2.06641 8.52734 2.0542 8.68359 2.10791 8.82422L5.19299 16.8902C5.00299 16.9543 4.78827 17 4.5 17C3.5957 17 3.28955 16.6504 2.86523 16.167C2.40918 15.6475 1.8418 15 0.5 15C0.223633 15 0 15.2236 0 15.5C0 15.7764 0.223633 16 0.5 16C1.38867 16 1.69287 16.3467 2.11328 16.8262C2.57178 17.3496 3.14258 18 4.5 18C5.85742 18 6.42773 17.3496 6.88672 16.8262C7.30762 16.3467 7.61133 16 8.5 16C9.38867 16 9.69238 16.3467 10.1133 16.8262C10.5723 17.3496 11.1426 18 12.5 18C13.8574 18 14.4277 17.3496 14.8867 16.8262C15.3076 16.3467 15.6113 16 16.5 16C17.3887 16 17.6924 16.3467 18.1133 16.8262C18.5723 17.3496 19.1426 18 20.5 18C21.8574 18 22.4277 17.3496 22.8867 16.8262C23.3076 16.3467 23.6113 16 24.5 16C24.7764 16 25 15.7764 25 15.5C25 15.2236 24.7764 15 24.5 15ZM8 1H17V2H8V1ZM6 3H7.5H17.5H19V7.56946L12.582 6.50293C12.5547 6.49823 12.5276 6.50708 12.5001 6.50714C12.4725 6.50708 12.4456 6.49823 12.418 6.50293L6 7.56946V3ZM10.8652 16.167C10.4092 15.6475 9.8418 15 8.5 15C7.1582 15 6.59082 15.6475 6.13477 16.167C6.09869 16.2081 6.06506 16.2417 6.03021 16.2808L3.26025 9.03809L12 7.58594V16.9461C11.468 16.8354 11.1973 16.5457 10.8652 16.167ZM16.5 15C15.1582 15 14.5908 15.6475 14.1348 16.167C13.8027 16.5457 13.532 16.8354 13 16.9461V7.58594L21.7402 9.03809L18.9698 16.2808C18.9349 16.2417 18.9013 16.2081 18.8652 16.167C18.4092 15.6475 17.8418 15 16.5 15ZM10 4.5C10 4.77637 9.77637 5 9.5 5H7.5C7.22363 5 7 4.77637 7 4.5C7 4.22363 7.22363 4 7.5 4H9.5C9.77637 4 10 4.22363 10 4.5ZM13.5 5H11.5C11.2236 5 11 4.77637 11 4.5C11 4.22363 11.2236 4 11.5 4H13.5C13.7764 4 14 4.22363 14 4.5C14 4.77637 13.7764 5 13.5 5ZM15 4.5C15 4.22363 15.2236 4 15.5 4H17.5C17.7764 4 18 4.22363 18 4.5C18 4.77637 17.7764 5 17.5 5H15.5C15.2236 5 15 4.77637 15 4.5Z" fill="#83909E"/>
</svg>
