<svg width="168" height="44" viewBox="0 0 168 44" fill="none" xmlns="http://www.w3.org/2000/svg">
<path d="M40 17.187C40 18.5131 39.3506 19.84 38.0519 20.6071L32.3081 24H20.0604V23.9666L32.3081 17.0698L20 10V13H11H8H7V17.5496L2 20.2976V8H15V4.51477C15 2.31031 17.0322 1.43305 18.7375 2.39612L38.0465 13.7637C39.3489 14.5303 40 15.859 40 17.187Z" fill="#4070B7"/>
<path d="M0 26.8214C0 25.4953 0.649353 24.1684 1.94806 23.4013L7.69189 20.0084H19.9396V20.0418L7.69189 26.9386L20 34.0084V31.0084H29H32H33V26.4588L38 23.7108V36.0084H25V39.4936C25 41.6981 22.9678 42.5753 21.2625 41.6123L1.95349 30.2447C0.651123 29.4781 0 28.1494 0 26.8214Z" fill="#DB563B"/>
<path d="M58.8534 3.24525H65.3106L59.9512 21.2203C59.5757 22.4514 58.9641 23.3891 58.1166 24.0334C57.2692 24.6778 56.282 25 55.1553 25C54.0285 25 53.039 24.6778 52.1867 24.0334C51.3344 23.3891 50.7205 22.4514 50.3449 21.2203L45 3.24525H51.4572L55.0975 18.9121H55.2131L58.8534 3.24525ZM66.8274 24.7548H72.6923V3.24525H66.8274V24.7548ZM86.5023 3.24525L81.6486 11.5403H81.5908V3.24525H75.7259V24.7548H81.5908V16.4597H86.5023V24.7548H92.3384V16.4597C92.3384 14.8728 91.8954 13.6441 91.0094 12.7738C90.1233 11.9034 88.9485 11.4923 87.4846 11.5403L92.6562 3.24525C92.6562 3.24525 86.5023 3.24525 86.5023 3.24525ZM111.363 6.09443C111.594 6.70512 111.71 7.39522 111.71 8.16459V19.8354C111.71 20.4893 111.631 21.0786 111.472 21.6026C111.313 22.1268 111.115 22.5571 110.879 22.8938C110.643 23.2304 110.35 23.5213 109.998 23.7666C109.647 24.0118 109.319 24.1945 109.016 24.3148C108.713 24.435 108.375 24.5311 108.005 24.6033C107.634 24.6754 107.345 24.7187 107.138 24.7331C106.931 24.7475 106.712 24.7548 106.481 24.7548H100.023C99.8597 24.7548 99.7008 24.7524 99.5468 24.7475C99.3927 24.7427 99.1833 24.721 98.9184 24.6826C98.6535 24.6442 98.4056 24.5961 98.1744 24.5384C97.9433 24.4807 97.6833 24.3917 97.3944 24.2715C97.1055 24.1512 96.8431 24.0094 96.6071 23.8459C96.3711 23.6824 96.1376 23.4732 95.9065 23.2184C95.6753 22.9635 95.4827 22.6822 95.3286 22.3744C95.1746 22.0666 95.0469 21.694 94.9458 21.2564C94.8447 20.8189 94.7941 20.345 94.7941 19.8354V8.16459C94.7941 6.6162 95.2515 5.40918 96.1665 4.54361C97.0814 3.67804 98.3671 3.24525 100.023 3.24525H106.481C107.309 3.24525 108.05 3.35587 108.705 3.57705C109.36 3.79823 109.909 4.12047 110.352 4.54361C110.795 4.96676 111.132 5.48374 111.363 6.09443ZM105.874 8.48197H100.645V19.5325H105.874V8.48197ZM128.402 13.4013C128.166 13.0647 127.875 12.7738 127.528 12.5285C127.181 12.2833 126.854 12.0982 126.546 11.9731C126.237 11.8481 125.898 11.7519 125.527 11.6846C125.157 11.6172 124.868 11.5764 124.661 11.562C124.453 11.5475 124.234 11.5403 124.003 11.5403H119.713V8.48197H128.626V3.24525H119.092C117.445 3.24525 116.159 3.67804 115.235 4.54361C114.31 5.40918 113.848 6.6162 113.848 8.16459V11.5403C113.848 13.0791 114.31 14.2837 115.235 15.1541C116.159 16.0244 117.445 16.4597 119.092 16.4597H123.397V19.5325H113.848V24.7548H124.003C124.234 24.7548 124.453 24.7475 124.661 24.7331C124.868 24.7187 125.157 24.6754 125.527 24.6033C125.898 24.5311 126.237 24.435 126.546 24.3148C126.854 24.1945 127.181 24.0118 127.528 23.7666C127.875 23.5213 128.166 23.2304 128.402 22.8938C128.638 22.5571 128.835 22.1268 128.994 21.6026C129.153 21.0786 129.233 20.4893 129.233 19.8354V16.4597C129.233 15.8058 129.153 15.2165 128.994 14.6925C128.835 14.1683 128.638 13.738 128.402 13.4013ZM146.755 3.24525H130.446V8.48197H135.69V24.7548H141.526V8.48197H146.755V3.24525ZM165 24.7548H158.543L157.488 20.7587H152.201L151.147 24.7548H144.689L150.034 6.77967C150.285 5.9526 150.653 5.25049 151.139 4.67345C151.626 4.09639 152.179 3.67325 152.801 3.40394C153.422 3.13463 154.103 3 154.845 3C155.971 3 156.959 3.3198 157.806 3.95935C158.654 4.59889 159.265 5.53902 159.641 6.77967L165 24.7548ZM156.694 15.8393L154.902 9.08787H154.787L152.996 15.8393H156.694Z" fill="#4070B7"/>
<path d="M55.7198 36.6601C55.7846 36.7075 55.817 36.7629 55.817 36.8261V37.585C55.817 37.6721 55.7927 37.7313 55.744 37.7629C55.6955 37.7946 55.6118 37.8183 55.4931 37.834C55.3742 37.8577 55.2041 37.8796 54.983 37.8992C54.7617 37.9189 54.5216 37.9366 54.2625 37.9526C54.0034 37.9683 53.7388 37.9802 53.469 37.9882C53.1991 37.996 52.9562 38 52.7404 38C52.2114 38 51.7203 37.9683 51.2669 37.9052C50.8135 37.842 50.4194 37.7213 50.0849 37.5435C49.7501 37.3656 49.4858 37.1187 49.2914 36.8023C49.0971 36.4863 49 36.0752 49 35.5691V29.332C49 29.2688 49.0324 29.2134 49.0971 29.166C49.1619 29.1186 49.2373 29.0948 49.3238 29.0948H50.9269C51.0131 29.0948 51.0888 29.1186 51.1535 29.166C51.2184 29.2134 51.2507 29.2688 51.2507 29.332V35.5691C51.2507 35.9646 51.3423 36.2332 51.526 36.3755C51.7094 36.5178 52.0386 36.5889 52.5137 36.5889H55.4931C55.5794 36.5889 55.655 36.6127 55.7198 36.6601ZM65.3305 31.0217C65.5622 31.4922 65.6781 32.0515 65.6781 32.6996V34.3004C65.6781 34.9566 65.5622 35.5178 65.3305 35.9842C65.0987 36.4507 64.7781 36.832 64.3688 37.1284C63.9592 37.4249 63.4742 37.6443 62.914 37.7866C62.3536 37.9289 61.7393 38 61.0714 38C60.4032 38 59.7889 37.9289 59.2287 37.7866C58.6683 37.6443 58.1833 37.4249 57.774 37.1284C57.3643 36.832 57.0438 36.4507 56.812 35.9842C56.5803 35.5178 56.4647 34.9566 56.4647 34.3004V32.6996C56.4647 32.0515 56.5803 31.4922 56.812 31.0217C57.0438 30.5515 57.3643 30.168 57.774 29.8715C58.1833 29.5751 58.6683 29.3557 59.2287 29.2134C59.7889 29.0711 60.4032 29 61.0714 29C61.7393 29 62.3536 29.0711 62.914 29.2134C63.4742 29.3557 63.9592 29.5751 64.3688 29.8715C64.7781 30.168 65.0987 30.5515 65.3305 31.0217ZM63.4273 32.6996C63.4273 31.9092 63.2351 31.3341 62.8505 30.9743C62.4659 30.6146 61.8729 30.4348 61.0714 30.4348C60.2698 30.4348 59.6768 30.6146 59.2922 30.9743C58.9077 31.3341 58.7154 31.9092 58.7154 32.6996V34.3004C58.7154 35.091 58.9077 35.6661 59.2922 36.0257C59.6768 36.3855 60.2698 36.5652 61.0714 36.5652C61.8729 36.5652 62.4659 36.3855 62.8505 36.0257C63.2351 35.6661 63.4273 35.091 63.4273 34.3004V32.6996ZM75.3605 29.2134C75.2304 29.1977 75.0465 29.1778 74.8086 29.1541C74.5706 29.1304 74.3001 29.1067 73.9972 29.083C73.6944 29.0593 73.362 29.0396 72.9997 29.0237C72.6373 29.0079 72.2614 29 71.872 29C71.3852 29 70.885 29.0593 70.3714 29.1778C69.8576 29.2964 69.3843 29.4961 68.9516 29.7766C68.519 30.0574 68.1647 30.4309 67.889 30.8972C67.6132 31.3638 67.4753 31.9487 67.4753 32.6521V34.3597C67.4753 35.0633 67.6185 35.6483 67.9052 36.1146C68.1918 36.5812 68.5542 36.9526 68.9923 37.2293C69.4303 37.5061 69.9009 37.7036 70.4038 37.8222C70.9068 37.9407 71.38 38 71.8234 38C72.667 38 73.3647 37.9823 73.9163 37.9467C74.4679 37.9111 74.9493 37.8618 75.3605 37.7985C75.5659 37.7669 75.6686 37.6721 75.6686 37.5138V33.5296C75.6686 33.4664 75.636 33.411 75.5707 33.3636C75.5054 33.3162 75.4292 33.2925 75.3425 33.2925H73.7278C73.6408 33.2925 73.5671 33.3162 73.5075 33.3636C73.4477 33.411 73.4179 33.4664 73.4179 33.5296V36.5534C73.1684 36.5693 72.9136 36.5791 72.6535 36.5831C72.3932 36.5871 72.1114 36.5889 71.8078 36.5889C71.5692 36.5889 71.3253 36.5515 71.0758 36.4763C70.8263 36.4013 70.6014 36.2767 70.4008 36.1028C70.2002 35.929 70.0375 35.6996 69.913 35.415C69.7883 35.1304 69.726 34.7788 69.726 34.3597V32.6521C69.726 32.2332 69.7857 31.8795 69.9051 31.5909C70.0246 31.3024 70.1845 31.0712 70.3853 30.8972C70.5862 30.7234 70.8142 30.5989 71.0693 30.5237C71.3243 30.4486 71.5874 30.4111 71.8589 30.4111C72.6402 30.4111 73.3131 30.4211 73.8776 30.4407C74.442 30.4605 74.9142 30.4822 75.2942 30.5059H75.343C75.473 30.5059 75.5598 30.4862 75.6033 30.4466C75.6469 30.4072 75.6686 30.344 75.6686 30.2569V29.4624C75.6686 29.3281 75.5659 29.2451 75.3605 29.2134ZM80.2348 29.16C80.17 29.1167 80.0943 29.0948 80.008 29.0948H78.405C78.3185 29.0948 78.2431 29.1167 78.1783 29.16C78.1135 29.2036 78.0811 29.257 78.0811 29.3201V37.668C78.0811 37.7313 78.1135 37.7866 78.1783 37.834C78.2431 37.8814 78.3185 37.9052 78.405 37.9052H80.008C80.0943 37.9052 80.17 37.8814 80.2348 37.834C80.2995 37.7866 80.3319 37.7313 80.3319 37.668V29.3201C80.3319 29.257 80.2995 29.2036 80.2348 29.16ZM89.5855 34.2292C89.4181 34.0317 89.1888 33.84 88.8974 33.6541C88.6059 33.4685 88.2389 33.2847 87.7963 33.1028L85.8533 32.3083C85.5941 32.2056 85.3781 32.1108 85.2055 32.0237C85.0327 31.9368 84.8951 31.8517 84.7926 31.7687C84.6899 31.6857 84.6198 31.6027 84.5822 31.5197C84.5442 31.4367 84.5254 31.3478 84.5254 31.2529C84.5254 30.9843 84.6575 30.7768 84.9222 30.6304C85.1866 30.4842 85.621 30.4111 86.2256 30.4111C86.7544 30.4111 87.2835 30.4211 87.8125 30.4407C88.3413 30.4605 88.8756 30.4902 89.4156 30.5296H89.448C89.5342 30.5296 89.6017 30.5099 89.6503 30.4703C89.6989 30.4309 89.7232 30.3795 89.7232 30.3162V29.4387C89.7232 29.3755 89.6961 29.3261 89.6423 29.2905C89.5881 29.2549 89.518 29.2294 89.4318 29.2134C89.2913 29.1897 89.1024 29.166 88.865 29.1423C88.6274 29.1186 88.363 29.0948 88.0716 29.0711C87.7801 29.0474 87.4831 29.0296 87.181 29.0177C86.8787 29.0059 86.5925 29 86.3228 29C85.5671 29 84.9329 29.0554 84.4202 29.166C83.9073 29.2768 83.4917 29.4328 83.1734 29.6344C82.8549 29.8359 82.6255 30.0751 82.4852 30.3518C82.3448 30.6286 82.2748 30.9289 82.2748 31.2529C82.2748 31.4586 82.3044 31.6581 82.3637 31.8517C82.423 32.0455 82.5258 32.2312 82.6715 32.409C82.8172 32.587 83.0115 32.7589 83.2543 32.9249C83.4973 33.0909 83.8074 33.2569 84.1854 33.4229L86.3228 34.3597C86.5925 34.4783 86.8139 34.5831 86.9867 34.674C87.1593 34.7649 87.2997 34.8538 87.4076 34.9407C87.5155 35.0278 87.5911 35.1167 87.6344 35.2075C87.6774 35.2984 87.6992 35.4032 87.6992 35.5217C87.6992 35.8697 87.5668 36.1344 87.3025 36.3162C87.0378 36.4981 86.5439 36.5889 85.8209 36.5889C85.6696 36.5889 85.4671 36.585 85.2137 36.5771C84.9598 36.5693 84.6927 36.5593 84.4121 36.5474C84.1313 36.5356 83.8588 36.5237 83.5944 36.5118C83.3298 36.5 83.1168 36.4863 82.9548 36.4704H82.9225C82.8359 36.4704 82.763 36.4922 82.7039 36.5356C82.6444 36.5791 82.6148 36.6325 82.6148 36.6957V37.5494C82.6148 37.6128 82.6444 37.6641 82.7039 37.7036C82.763 37.7432 82.8359 37.7709 82.9225 37.7866C83.3111 37.85 83.732 37.9013 84.1854 37.9407C84.6388 37.9802 85.1732 38 85.7885 38C86.5981 38 87.2754 37.9269 87.8206 37.7806C88.3655 37.6345 88.8028 37.4448 89.1322 37.2114C89.4613 36.9784 89.6961 36.7135 89.8365 36.417C89.9768 36.1206 90.047 35.8222 90.047 35.5217C90.047 35.2846 90.0119 35.0593 89.9418 34.8458C89.8714 34.6324 89.7528 34.427 89.5855 34.2292ZM99.649 29.16C99.5842 29.1167 99.5085 29.0948 99.4223 29.0948H91.5042C91.4177 29.0948 91.3423 29.1167 91.2776 29.16C91.2127 29.2036 91.1803 29.257 91.1803 29.3201V30.2569C91.1803 30.3202 91.2127 30.3715 91.2776 30.4111C91.3423 30.4507 91.4177 30.4703 91.5042 30.4703H94.3379V37.668C94.3379 37.7313 94.3703 37.7866 94.435 37.834C94.4998 37.8814 94.5752 37.9052 94.6617 37.9052H96.2648C96.351 37.9052 96.4267 37.8814 96.4914 37.834C96.5562 37.7866 96.5886 37.7313 96.5886 37.668V30.4703H99.4223C99.5085 30.4703 99.5842 30.4507 99.649 30.4111C99.7137 30.3715 99.7461 30.3202 99.7461 30.2569V29.3201C99.7461 29.257 99.7137 29.2036 99.649 29.16ZM103.519 29.16C103.454 29.1167 103.378 29.0948 103.292 29.0948H101.689C101.603 29.0948 101.527 29.1167 101.462 29.16C101.398 29.2036 101.365 29.257 101.365 29.3201V37.668C101.365 37.7313 101.398 37.7866 101.462 37.834C101.527 37.8814 101.603 37.9052 101.689 37.9052H103.292C103.378 37.9052 103.454 37.8814 103.519 37.834C103.584 37.7866 103.616 37.7313 103.616 37.668V29.3201C103.616 29.257 103.584 29.2036 103.519 29.16ZM113.104 29.2787C113.04 29.243 112.953 29.2134 112.845 29.1897C112.781 29.1819 112.67 29.166 112.513 29.1423C112.357 29.1186 112.165 29.0969 111.939 29.077C111.712 29.0574 111.458 29.0396 111.178 29.0237C110.897 29.0079 110.6 29 110.287 29C109.801 29 109.288 29.0494 108.749 29.1482C108.209 29.2471 107.717 29.4309 107.272 29.6996C106.827 29.9684 106.458 30.3381 106.163 30.8083C105.868 31.2787 105.721 31.8855 105.721 32.6284V34.3716C105.721 35.1067 105.868 35.7075 106.163 36.1739C106.458 36.6405 106.827 37.0099 107.272 37.2826C107.717 37.5554 108.209 37.7432 108.749 37.8459C109.288 37.9485 109.801 38 110.287 38C110.6 38 110.897 37.992 111.178 37.9763C111.458 37.9603 111.712 37.9426 111.939 37.923C112.165 37.9033 112.357 37.8834 112.513 37.8636C112.67 37.844 112.781 37.8262 112.845 37.8103C112.953 37.7866 113.04 37.7569 113.104 37.7213C113.169 37.6858 113.202 37.6246 113.202 37.5375V36.7431C113.202 36.6719 113.177 36.6127 113.129 36.5652C113.08 36.5178 112.996 36.4941 112.878 36.4941H112.845C112.705 36.5021 112.535 36.5118 112.335 36.5237C112.135 36.5356 111.922 36.5456 111.696 36.5534C111.469 36.5614 111.237 36.5693 110.999 36.5771C110.762 36.585 110.535 36.5889 110.319 36.5889C109.974 36.5889 109.658 36.5515 109.372 36.4763C109.086 36.4013 108.84 36.2767 108.635 36.1028C108.43 35.929 108.268 35.6996 108.15 35.415C108.031 35.1304 107.971 34.7827 107.971 34.3716V32.6284C107.971 32.2095 108.031 31.8577 108.15 31.5731C108.268 31.2885 108.43 31.0614 108.635 30.8913C108.84 30.7214 109.086 30.5989 109.372 30.5237C109.658 30.4486 109.974 30.4111 110.319 30.4111C110.535 30.4111 110.762 30.4151 110.999 30.4229C111.237 30.4309 111.469 30.4388 111.696 30.4466C111.922 30.4546 112.135 30.4644 112.335 30.4762C112.535 30.4881 112.705 30.4981 112.845 30.5059H112.878C112.996 30.5059 113.08 30.4822 113.129 30.4348C113.177 30.3873 113.202 30.3281 113.202 30.2569V29.4624C113.202 29.3755 113.169 29.3142 113.104 29.2787ZM121.986 34.2292C121.818 34.0317 121.589 33.84 121.298 33.6541C121.006 33.4685 120.639 33.2847 120.196 33.1028L118.253 32.3083C117.994 32.2056 117.778 32.1108 117.606 32.0237C117.433 31.9368 117.295 31.8517 117.193 31.7687C117.09 31.6857 117.02 31.6027 116.982 31.5197C116.944 31.4367 116.926 31.3478 116.926 31.2529C116.926 30.9843 117.058 30.7768 117.322 30.6304C117.587 30.4842 118.021 30.4111 118.626 30.4111C119.155 30.4111 119.684 30.4211 120.213 30.4407C120.741 30.4605 121.276 30.4902 121.816 30.5296H121.848C121.934 30.5296 122.002 30.5099 122.05 30.4703C122.099 30.4309 122.123 30.3795 122.123 30.3162V29.4387C122.123 29.3755 122.096 29.3261 122.042 29.2905C121.988 29.2549 121.918 29.2294 121.832 29.2134C121.692 29.1897 121.503 29.166 121.265 29.1423C121.028 29.1186 120.763 29.0948 120.472 29.0711C120.18 29.0474 119.883 29.0296 119.581 29.0177C119.279 29.0059 118.993 29 118.723 29C117.967 29 117.333 29.0554 116.82 29.166C116.308 29.2768 115.892 29.4328 115.574 29.6344C115.255 29.8359 115.026 30.0751 114.885 30.3518C114.745 30.6286 114.675 30.9289 114.675 31.2529C114.675 31.4586 114.705 31.6581 114.764 31.8517C114.823 32.0455 114.926 32.2312 115.072 32.409C115.217 32.587 115.412 32.7589 115.655 32.9249C115.897 33.0909 116.208 33.2569 116.586 33.4229L118.723 34.3597C118.993 34.4783 119.214 34.5831 119.387 34.674C119.559 34.7649 119.7 34.8538 119.808 34.9407C119.916 35.0278 119.991 35.1167 120.035 35.2075C120.078 35.2984 120.099 35.4032 120.099 35.5217C120.099 35.8697 119.967 36.1344 119.703 36.3162C119.438 36.4981 118.944 36.5889 118.221 36.5889C118.07 36.5889 117.867 36.585 117.614 36.5771C117.36 36.5693 117.093 36.5593 116.812 36.5474C116.531 36.5356 116.259 36.5237 115.995 36.5118C115.73 36.5 115.517 36.4863 115.355 36.4704H115.323C115.236 36.4704 115.163 36.4922 115.104 36.5356C115.045 36.5791 115.015 36.6325 115.015 36.6957V37.5494C115.015 37.6128 115.045 37.6641 115.104 37.7036C115.163 37.7432 115.236 37.7709 115.323 37.7866C115.711 37.85 116.132 37.9013 116.586 37.9407C117.039 37.9802 117.573 38 118.189 38C118.998 38 119.676 37.9269 120.221 37.7806C120.766 37.6345 121.203 37.4448 121.532 37.2114C121.861 36.9784 122.096 36.7135 122.237 36.417C122.377 36.1206 122.447 35.8222 122.447 35.5217C122.447 35.2846 122.412 35.0593 122.342 34.8458C122.272 34.6324 122.153 34.427 121.986 34.2292ZM135.498 29.2787C135.433 29.243 135.347 29.2134 135.239 29.1897C135.174 29.1819 135.063 29.166 134.907 29.1423C134.75 29.1186 134.559 29.0969 134.332 29.077C134.106 29.0574 133.852 29.0396 133.571 29.0237C133.29 29.0079 132.994 29 132.681 29C132.195 29 131.682 29.0494 131.142 29.1482C130.603 29.2471 130.111 29.4309 129.666 29.6996C129.221 29.9684 128.851 30.3381 128.556 30.8083C128.262 31.2787 128.114 31.8855 128.114 32.6284V34.3716C128.114 35.1067 128.262 35.7075 128.556 36.1739C128.851 36.6405 129.221 37.0099 129.666 37.2826C130.111 37.5554 130.603 37.7432 131.142 37.8459C131.682 37.9485 132.195 38 132.681 38C132.994 38 133.29 37.992 133.571 37.9763C133.852 37.9603 134.106 37.9426 134.332 37.923C134.559 37.9033 134.75 37.8834 134.907 37.8636C135.063 37.844 135.174 37.8262 135.239 37.8103C135.347 37.7866 135.433 37.7569 135.498 37.7213C135.563 37.6858 135.595 37.6246 135.595 37.5375V36.7431C135.595 36.6719 135.571 36.6127 135.522 36.5652C135.474 36.5178 135.39 36.4941 135.271 36.4941H135.239C135.099 36.5021 134.928 36.5118 134.729 36.5237C134.529 36.5356 134.316 36.5456 134.089 36.5534C133.863 36.5614 133.63 36.5693 133.393 36.5771C133.155 36.585 132.929 36.5889 132.713 36.5889C132.367 36.5889 132.052 36.5515 131.766 36.4763C131.48 36.4013 131.234 36.2767 131.029 36.1028C130.824 35.929 130.662 35.6996 130.543 35.415C130.424 35.1304 130.365 34.7827 130.365 34.3716V32.6284C130.365 32.2095 130.424 31.8577 130.543 31.5731C130.662 31.2885 130.824 31.0614 131.029 30.8913C131.234 30.7214 131.48 30.5989 131.766 30.5237C132.052 30.4486 132.367 30.4111 132.713 30.4111C132.929 30.4111 133.155 30.4151 133.393 30.4229C133.63 30.4309 133.863 30.4388 134.089 30.4466C134.316 30.4546 134.529 30.4644 134.729 30.4762C134.928 30.4881 135.099 30.4981 135.239 30.5059H135.271C135.39 30.5059 135.474 30.4822 135.522 30.4348C135.571 30.3873 135.595 30.3281 135.595 30.2569V29.4624C135.595 29.3755 135.563 29.3142 135.498 29.2787ZM144.047 36.5889H141.068C140.593 36.5889 140.264 36.5178 140.08 36.3755C139.897 36.2332 139.805 35.9646 139.805 35.5691V29.332C139.805 29.2688 139.773 29.2134 139.708 29.166C139.643 29.1186 139.567 29.0948 139.481 29.0948H137.878C137.792 29.0948 137.716 29.1186 137.651 29.166C137.587 29.2134 137.554 29.2688 137.554 29.332V35.5691C137.554 36.0752 137.651 36.4863 137.846 36.8023C138.04 37.1187 138.304 37.3656 138.639 37.5435C138.974 37.7213 139.368 37.842 139.821 37.9052C140.275 37.9683 140.766 38 141.295 38C141.51 38 141.753 37.996 142.023 37.9882C142.293 37.9802 142.558 37.9683 142.817 37.9526C143.076 37.9366 143.316 37.9189 143.537 37.8992C143.758 37.8796 143.928 37.8577 144.047 37.834C144.166 37.8183 144.25 37.7946 144.298 37.7629C144.347 37.7313 144.371 37.6721 144.371 37.585V36.8261C144.371 36.7629 144.339 36.7075 144.274 36.6601C144.209 36.6127 144.134 36.5889 144.047 36.5889ZM154.054 29.16C153.989 29.1167 153.914 29.0948 153.827 29.0948H152.224C152.138 29.0948 152.062 29.1167 151.998 29.1602C151.933 29.2038 151.901 29.2571 151.901 29.3205V34.6529C151.901 34.9935 151.868 35.2884 151.803 35.5378C151.739 35.7873 151.622 35.9951 151.455 36.1613C151.288 36.3277 151.061 36.4504 150.775 36.5295C150.489 36.6088 150.13 36.6482 149.698 36.6482C149.256 36.6482 148.894 36.6088 148.614 36.5295C148.333 36.4504 148.109 36.3277 147.942 36.1613C147.774 35.9951 147.658 35.7873 147.593 35.5378C147.529 35.2884 147.496 34.9935 147.496 34.6529V29.3205C147.496 29.2571 147.464 29.2038 147.399 29.1602C147.334 29.1167 147.259 29.0948 147.172 29.0948H145.569C145.483 29.0948 145.407 29.1167 145.343 29.16C145.278 29.2036 145.245 29.257 145.245 29.3201V34.6443C145.245 35.2768 145.356 35.8063 145.577 36.2332C145.799 36.6601 146.106 37.004 146.5 37.2648C146.894 37.5257 147.364 37.7136 147.909 37.8281C148.454 37.9426 149.051 38 149.698 38C150.346 38 150.942 37.9426 151.488 37.8281C152.033 37.7136 152.502 37.5257 152.896 37.2648C153.29 37.004 153.598 36.6601 153.819 36.2332C154.04 35.8063 154.151 35.2768 154.151 34.6443V29.3201C154.151 29.257 154.119 29.2036 154.054 29.16ZM165 35.2372V35.4387C165 35.913 164.884 36.3123 164.652 36.6364C164.42 36.9606 164.09 37.2233 163.664 37.4249C163.238 37.6265 162.722 37.7729 162.118 37.8636C161.513 37.9544 160.833 38 160.077 38C159.419 38 158.849 37.9882 158.369 37.9644C157.889 37.9407 157.524 37.909 157.276 37.8696C157.006 37.8301 156.809 37.7688 156.685 37.6858C156.561 37.6028 156.499 37.4507 156.499 37.2293V29.7589C156.499 29.5454 156.556 29.3933 156.669 29.3024C156.782 29.2115 156.969 29.1502 157.228 29.1186C157.444 29.0948 157.789 29.0693 158.264 29.0414C158.739 29.0139 159.295 29 159.932 29C160.666 29 161.338 29.0414 161.948 29.1244C162.557 29.2074 163.084 29.3438 163.526 29.5335C163.969 29.7233 164.312 29.9704 164.555 30.2747C164.798 30.5791 164.919 30.9565 164.919 31.4071V31.6443C164.919 32.0396 164.795 32.3972 164.547 32.7174C164.298 33.0375 163.926 33.2767 163.429 33.4348C163.926 33.593 164.312 33.8201 164.587 34.1166C164.862 34.413 165 34.7865 165 35.2372ZM158.75 32.7944H160.806C161.184 32.7944 161.497 32.7648 161.745 32.7052C161.994 32.6455 162.191 32.5641 162.336 32.4608C162.482 32.3576 162.585 32.2364 162.644 32.0975C162.703 31.9585 162.733 31.8134 162.733 31.6624V31.4956C162.733 31.0827 162.525 30.7888 162.11 30.6139C161.694 30.4392 160.968 30.3518 159.932 30.3518C159.737 30.3518 159.535 30.3538 159.325 30.3577C159.114 30.3618 158.922 30.3677 158.75 30.3755V32.7944ZM162.798 35.2609C162.798 35.0949 162.765 34.9368 162.701 34.7865C162.636 34.6365 162.525 34.504 162.369 34.3893C162.212 34.2748 162.007 34.1818 161.753 34.1106C161.5 34.0395 161.184 34.0039 160.806 34.0039H158.75V36.6127C158.944 36.6127 159.171 36.6168 159.43 36.6245C159.689 36.6325 159.905 36.6364 160.077 36.6364C160.596 36.6364 161.027 36.6127 161.373 36.5652C161.718 36.5178 161.996 36.4428 162.207 36.34C162.417 36.2373 162.568 36.1087 162.66 35.9546C162.752 35.8004 162.798 35.6207 162.798 35.415V35.2609Z" fill="#DB563B"/>
</svg>
