<svg width="22" height="22" viewBox="0 0 22 22" fill="none" xmlns="http://www.w3.org/2000/svg">
<path d="M21.8553 9.21893C21.8176 8.98718 21.6408 8.80255 21.4107 8.75494L18.9736 8.25024L18.5824 7.30591L19.9486 5.22626C20.0775 5.02991 20.0721 4.77448 19.9349 4.58386C19.2357 3.61157 18.3881 2.7641 17.4158 2.06476C17.3171 1.99377 17.201 1.95807 17.0847 1.95807C16.9764 1.95807 16.8681 1.98895 16.7735 2.05109L14.6938 3.41724L13.7496 3.02606L13.2449 0.589111C13.1973 0.35907 13.0128 0.182068 12.7809 0.144348C12.1929 0.048645 11.5937 0 10.9999 0C10.406 0 9.80688 0.0485229 9.21887 0.144348C8.987 0.182068 8.80243 0.358887 8.75482 0.588989L8.25006 3.02606L7.30579 3.41724L5.2262 2.05121C5.13153 1.98901 5.02313 1.95807 4.91492 1.95807C4.79865 1.95807 4.68256 1.99377 4.5838 2.06482C3.61145 2.7641 2.76398 3.61163 2.06458 4.58386C1.92749 4.77454 1.92206 5.03003 2.05103 5.22626L3.41705 7.30597L3.02594 8.25031L0.588806 8.75494C0.358765 8.80261 0.181885 8.98712 0.144165 9.21899C0.0484008 9.80695 -0.00012207 10.4062 -0.00012207 11C-0.00012207 11.5938 0.0484008 12.193 0.144226 12.7809C0.181946 13.0128 0.358765 13.1974 0.588806 13.245L3.02594 13.7498L3.41711 14.694L2.05109 16.7737C1.92212 16.9699 1.92749 17.2254 2.0647 17.4161C2.76398 18.3883 3.61151 19.2358 4.5838 19.9351C4.68256 20.0062 4.79871 20.0419 4.91504 20.0419C5.02325 20.0419 5.13159 20.011 5.2262 19.9488L7.30585 18.5828L8.25018 18.9739L8.75488 21.4109C8.80255 21.641 8.98706 21.8179 9.21887 21.8556C9.80682 21.9514 10.4061 22 10.9999 22C11.5938 22 12.1929 21.9515 12.7808 21.8556C13.0126 21.8179 13.1973 21.6411 13.2448 21.4109L13.7496 18.9739L14.6939 18.5827L16.7736 19.9488C16.8682 20.011 16.9766 20.0419 17.0849 20.0419C17.2012 20.0419 17.3173 20.0062 17.416 19.9352C18.3884 19.2358 19.2359 18.3882 19.9351 17.4161C20.0721 17.2254 20.0776 16.97 19.9487 16.7737L18.5827 14.694L18.9738 13.7497L21.4109 13.245C21.6408 13.1973 21.8177 13.0128 21.8555 12.781C21.9513 12.1934 21.9999 11.5941 21.9999 11C21.9999 10.4059 21.9512 9.8067 21.8553 9.21893ZM20.9119 12.3271L18.771 12.7705L18.2525 12.8779L18.0499 13.3671L17.6588 14.3114L17.4562 14.8005L17.7469 15.243L18.9469 17.07C18.4065 17.7767 17.777 18.4062 17.0699 18.947L15.243 17.7469L14.8004 17.4562L14.3112 17.6588L13.3669 18.05L12.8778 18.2526L12.7704 18.7711L12.327 20.912C11.887 20.9705 11.442 21 10.9999 21C10.5582 21 10.1131 20.9704 9.67273 20.9119L9.22937 18.7711L9.12201 18.2526L8.63281 18.05L7.68848 17.6589L7.19934 17.4563L6.75684 17.7469L4.92993 18.947C4.22302 18.4064 3.59332 17.7767 3.05292 17.0699L4.25293 15.243L4.54358 14.8005L4.341 14.3113L3.94983 13.3671L3.74725 12.8779L3.22876 12.7705L1.08789 12.3271C1.02942 11.887 0.999878 11.4418 0.999878 11C0.999878 10.5582 1.02942 10.113 1.08783 9.67279L3.2287 9.22955L3.74719 9.12219L3.94977 8.633L4.34094 7.68866L4.54358 7.19952L4.25287 6.75696L3.05286 4.92993C3.59344 4.22296 4.22302 3.59351 4.92987 3.05298L6.75677 4.25305L7.19928 4.5437L7.68848 4.34113L8.63275 3.94995L9.12195 3.74731L9.22931 3.22888L9.67267 1.08801C10.1129 1.02954 10.558 1 10.9999 1C11.4413 1 11.8865 1.02954 12.327 1.08801L12.7703 3.22882L12.8777 3.74731L13.3668 3.94995L14.3111 4.34106L14.8003 4.54376L15.2429 4.25305L17.0698 3.05298C17.7768 3.59363 18.4063 4.22314 18.9467 4.92999L17.7466 6.7569L17.4559 7.19946L17.6586 7.68866L18.0497 8.63293L18.2524 9.12207L18.7708 9.22943L20.9117 9.67285C20.9703 10.113 20.9999 10.5582 20.9999 11C20.9999 11.442 20.9703 11.8871 20.9119 12.3271ZM12.9999 11C12.9999 12.1046 12.1044 13 10.9999 13C9.89526 13 8.99988 12.1046 8.99988 11C8.99988 9.89545 9.89526 9 10.9999 9C12.1044 9 12.9999 9.89545 12.9999 11Z" fill="white"/>
</svg>
