<svg width="20" height="20" viewBox="0 0 20 20" fill="none" xmlns="http://www.w3.org/2000/svg">
<path d="M19.9999 10C19.9999 15.5228 15.5227 20 9.99988 20C4.47705 20 -0.00012207 15.5228 -0.00012207 10C-0.00012207 5.90033 2.46942 2.38135 5.99988 0.837646V1.94965C3.0415 3.42578 0.999878 6.47522 0.999878 10C0.999878 14.9626 5.03723 19 9.99988 19C14.9625 19 18.9999 14.9626 18.9999 10C18.9999 6.47522 16.9583 3.42578 13.9999 1.94965V0.837646C17.5303 2.38135 19.9999 5.90033 19.9999 10ZM9.99988 10C10.5521 10 10.9999 9.55231 10.9999 9V0H8.99988V9C8.99988 9.55231 9.44757 10 9.99988 10Z" fill="#B4C3EB"/>
</svg>
