<svg width="14" height="16" viewBox="0 0 14 16" fill="none" xmlns="http://www.w3.org/2000/svg">
<path d="M11.9419 1.954C9.21631 -0.651332 4.78369 -0.651332 2.05811 1.954C0.730957 3.22296 0 4.91197 0 6.7104C0 8.50834 0.730957 10.1974 2.05811 11.4663L6.6543 15.8613C6.75098 15.9536 6.87549 16 7 16C7.12451 16 7.24902 15.9536 7.3457 15.8613L11.9419 11.4663C13.269 10.1974 14 8.50834 14 6.7104C14 4.91197 13.269 3.22296 11.9419 1.954ZM11.2505 10.7434L7 14.8077L2.74951 10.7434C1.62109 9.66496 1 8.23237 1 6.7104C1 5.18794 1.62109 3.75535 2.74951 2.67688C3.92139 1.55641 5.46045 0.996169 7 0.996169C8.53955 0.996169 10.0786 1.55641 11.2505 2.67688C12.3789 3.75535 13 5.18794 13 6.7104C13 8.23237 12.3789 9.66496 11.2505 10.7434ZM7 4.49631C5.89697 4.49631 5 5.39357 5 6.49695C5 7.60034 5.89697 8.4976 7 8.4976C8.10303 8.4976 9 7.60034 9 6.49695C9 5.39357 8.10303 4.49631 7 4.49631ZM7 7.49728C6.44873 7.49728 6 7.0484 6 6.49695C6 5.94551 6.44873 5.49663 7 5.49663C7.55127 5.49663 8 5.94551 8 6.49695C8 7.0484 7.55127 7.49728 7 7.49728Z" fill="#DB563B"/>
</svg>
