<svg width="23" height="22" viewBox="0 0 23 22" fill="none" xmlns="http://www.w3.org/2000/svg">
<path d="M13.9713 7.19846C13.9127 7.42414 13.7106 7.57265 13.4879 7.57265C13.4469 7.57265 13.4039 7.56776 13.362 7.55604L11.4879 7.06656L9.6139 7.55604C9.3434 7.63224 9.07386 7.46518 9.00453 7.19846C8.93422 6.93173 9.09437 6.65817 9.36195 6.58881L11.362 6.06611C11.444 6.04462 11.5319 6.04462 11.6139 6.06611L13.6139 6.58881C13.8815 6.65817 14.0416 6.93173 13.9713 7.19846ZM13.6139 8.5897L11.6139 8.06701C11.5319 8.04551 11.444 8.04551 11.362 8.06701L9.36195 8.5897C9.09437 8.65907 8.93422 8.93263 9.00453 9.19935C9.07386 9.46705 9.3434 9.63314 9.6139 9.55693L11.4879 9.06746L13.362 9.55693C13.4039 9.56866 13.4469 9.57354 13.4879 9.57354C13.7106 9.57354 13.9127 9.42504 13.9713 9.19935C14.0416 8.93263 13.8815 8.65907 13.6139 8.5897ZM3.98793 15.4971V6.21462V5.49261V2.25679C3.98793 2.0272 4.1432 1.82789 4.36586 1.7722L11.3659 0.00578385C11.3684 0.00505112 11.3711 0.00621124 11.3737 0.00553964C11.4088 -0.00288703 11.444 0.00303612 11.4802 0.0025476C11.5217 0.00169272 11.5621 -0.00423033 11.6027 0.00560077C11.6051 0.00621144 11.6076 0.00511225 11.61 0.00578395L18.61 1.7722C18.8327 1.82789 18.9879 2.0272 18.9879 2.25679V5.49261V6.21462V15.4971C18.9879 15.7736 18.7643 15.9973 18.4879 15.9973H4.48793C4.21156 15.9973 3.98793 15.7736 3.98793 15.4971ZM17.9879 14.9969V6.60383L11.4879 4.96357L4.98793 6.60383V14.9969H17.9879ZM17.9879 2.64661L11.9879 1.13226V4.05838L17.9879 5.57273V5.49261V2.64661ZM4.98793 5.49261V5.57273L10.9879 4.05838V1.13226L4.98793 2.64661V5.49261ZM8.98793 12.4957C8.98793 13.3233 8.31508 13.9964 7.48793 13.9964C6.66078 13.9964 5.98793 13.3233 5.98793 12.4957C5.98793 11.6682 6.66078 10.9951 7.48793 10.9951C8.31508 10.9951 8.98793 11.6682 8.98793 12.4957ZM7.98793 12.4957C7.98793 12.2202 7.76332 11.9955 7.48793 11.9955C7.21254 11.9955 6.98793 12.2202 6.98793 12.4957C6.98793 12.7713 7.21254 12.996 7.48793 12.996C7.76332 12.996 7.98793 12.7713 7.98793 12.4957ZM16.9879 12.4957C16.9879 13.3233 16.3151 13.9964 15.4879 13.9964C14.6608 13.9964 13.9879 13.3233 13.9879 12.4957C13.9879 11.6682 14.6608 10.9951 15.4879 10.9951C16.3151 10.9951 16.9879 11.6682 16.9879 12.4957ZM15.9879 12.4957C15.9879 12.2202 15.7633 11.9955 15.4879 11.9955C15.2125 11.9955 14.9879 12.2202 14.9879 12.4957C14.9879 12.7713 15.2125 12.996 15.4879 12.996C15.7633 12.996 15.9879 12.7713 15.9879 12.4957ZM5.48793 16.9978C5.21156 16.9978 4.98793 17.2215 4.98793 17.498C4.98793 17.7745 5.21156 17.9982 5.48793 17.9982H17.4879C17.7643 17.9982 17.9879 17.7745 17.9879 17.498C17.9879 17.2215 17.7643 16.9978 17.4879 16.9978H5.48793ZM4.48793 19.9991H18.4879C18.7643 19.9991 18.9879 19.7754 18.9879 19.4989C18.9879 19.2224 18.7643 18.9987 18.4879 18.9987H4.48793C4.21156 18.9987 3.98793 19.2224 3.98793 19.4989C3.98793 19.7754 4.21156 19.9991 4.48793 19.9991ZM19.4879 20.9996H3.48793C3.21156 20.9996 2.98793 21.2233 2.98793 21.4998C2.98793 21.7763 3.21156 22 3.48793 22H19.4879C19.7643 22 19.9879 21.7763 19.9879 21.4998C19.9879 21.2233 19.7643 20.9996 19.4879 20.9996ZM3.43812 17.0818C3.20863 16.9284 2.89857 16.9899 2.74476 17.2205L0.0836305 21.2223C-0.0692015 21.4529 -0.0067015 21.7636 0.223279 21.916C0.30824 21.9726 0.404431 22 0.499646 22C0.661267 22 0.819959 21.9218 0.916638 21.7772L3.57777 17.7755C3.7306 17.5449 3.6681 17.2342 3.43812 17.0818ZM22.9157 21.2223L20.2545 17.2205C20.1012 16.9899 19.7907 16.9294 19.5612 17.0818C19.3317 17.2342 19.2692 17.5449 19.4225 17.7755L22.0836 21.7772C22.1793 21.9218 22.3385 22 22.4996 22C22.5953 22 22.6911 21.9726 22.777 21.916C23.0065 21.7636 23.069 21.4529 22.9157 21.2223Z" fill="white"/>
</svg>
