<svg width="20" height="16" viewBox="0 0 20 16" fill="none" xmlns="http://www.w3.org/2000/svg">
<path d="M18.1763 0H10H1.82367C0.816467 0 0 0.816467 0 1.82361V14.1764C0 15.1835 0.816467 16 1.82367 16H10H18.1763C19.1835 16 20 15.1835 20 14.1764V1.82361C20 0.816467 19.1835 0 18.1763 0ZM13.2686 9.85461L11.854 11.2687L10.0001 9.41461L8.146 11.2687L6.73193 9.85461L8.586 8.00037L6.73193 6.14612L8.146 4.73206L10.0001 6.58612L11.854 4.73206L13.2686 6.14612L11.4143 8.00037L13.2686 9.85461Z" fill="#FD7171"/>
</svg>
