<svg width="14" height="16" viewBox="0 0 14 16" fill="none" xmlns="http://www.w3.org/2000/svg">
<path d="M11.3311 0H2.66895C1.19727 0 0 1.19727 0 2.66895V13.3311C0 14.8027 1.19727 16 2.66895 16H11.3311C12.8027 16 14 14.8027 14 13.3311V2.66895C14 1.19727 12.8027 0 11.3311 0ZM2.66895 1H11.3311C12.2515 1 13 1.74854 13 2.66895V5H1V2.66895C1 1.74854 1.74854 1 2.66895 1ZM11.3311 15H2.66895C1.74854 15 1 14.2515 1 13.3311V6H13V13.3311C13 14.2515 12.2515 15 11.3311 15ZM5 8.5C5 8.77637 4.77637 9 4.5 9H3.5C3.22363 9 3 8.77637 3 8.5C3 8.22363 3.22363 8 3.5 8H4.5C4.77637 8 5 8.22363 5 8.5ZM8 8.5C8 8.77637 7.77637 9 7.5 9H6.5C6.22363 9 6 8.77637 6 8.5C6 8.22363 6.22363 8 6.5 8H7.5C7.77637 8 8 8.22363 8 8.5ZM11 8.5C11 8.77637 10.7764 9 10.5 9H9.5C9.22363 9 9 8.77637 9 8.5C9 8.22363 9.22363 8 9.5 8H10.5C10.7764 8 11 8.22363 11 8.5ZM5 10.5C5 10.7764 4.77637 11 4.5 11H3.5C3.22363 11 3 10.7764 3 10.5C3 10.2236 3.22363 10 3.5 10H4.5C4.77637 10 5 10.2236 5 10.5ZM8 10.5C8 10.7764 7.77637 11 7.5 11H6.5C6.22363 11 6 10.7764 6 10.5C6 10.2236 6.22363 10 6.5 10H7.5C7.77637 10 8 10.2236 8 10.5ZM11 10.5C11 10.7764 10.7764 11 10.5 11H9.5C9.22363 11 9 10.7764 9 10.5C9 10.2236 9.22363 10 9.5 10H10.5C10.7764 10 11 10.2236 11 10.5ZM5 12.5C5 12.7764 4.77637 13 4.5 13H3.5C3.22363 13 3 12.7764 3 12.5C3 12.2236 3.22363 12 3.5 12H4.5C4.77637 12 5 12.2236 5 12.5ZM8 12.5C8 12.7764 7.77637 13 7.5 13H6.5C6.22363 13 6 12.7764 6 12.5C6 12.2236 6.22363 12 6.5 12H7.5C7.77637 12 8 12.2236 8 12.5ZM11 12.5C11 12.7764 10.7764 13 10.5 13H9.5C9.22363 13 9 12.7764 9 12.5C9 12.2236 9.22363 12 9.5 12H10.5C10.7764 12 11 12.2236 11 12.5Z" fill="#DB563B"/>
</svg>
