<svg width="10" height="6" viewBox="0 0 10 6" fill="none" xmlns="http://www.w3.org/2000/svg">
<path d="M4.99966 5.9997C4.92348 6.00361 4.85415 5.98408 4.78628 5.95185C4.73501 5.92841 4.68764 5.89521 4.64565 5.85224C4.63784 5.84541 4.63052 5.83759 4.62319 5.8288L0.128562 0.834663C-0.0560081 0.629585 -0.0394066 0.313179 0.165672 0.128608C0.370261 -0.0564504 0.686668 -0.0403371 0.871726 0.165718L4.99966 4.75263L9.12759 0.165718C9.31411 -0.0393605 9.62954 -0.0554738 9.83462 0.128608C10.0397 0.313179 10.0563 0.629585 9.87173 0.834663L5.37563 5.8288C5.3688 5.83759 5.36098 5.84541 5.3522 5.85419C5.31216 5.89423 5.26723 5.92548 5.21841 5.9499C5.15005 5.9831 5.07387 5.9997 4.99966 5.9997Z" fill="#DB563B"/>
</svg>
