<svg width="21" height="20" viewBox="0 0 21 20" fill="none" xmlns="http://www.w3.org/2000/svg">
<path d="M20.5 3H19V1.5C19 1.22363 18.7764 1 18.5 1H2.5C2.22363 1 2 1.22363 2 1.5V3H0.5C0.223633 3 0 3.22363 0 3.5V7.5C0 7.77637 0.223633 8 0.5 8H2V8.5V16.5V18.5C2 18.7764 2.22363 19 2.5 19H5.5C5.77637 19 6 18.7764 6 18.5V17H15V18.5C15 18.7764 15.2236 19 15.5 19H18.5C18.7764 19 19 18.7764 19 18.5V16.5V8.5V8H20.5C20.7764 8 21 7.77637 21 7.5V3.5C21 3.22363 20.7764 3 20.5 3ZM2 7H1V4H2V7ZM5 18H3V17H4.5H5V18ZM5.5 16H5V15H16V16H15.5H5.5ZM18 18H16V17H16.5H18V18ZM18 16H17V14.5C17 14.2236 16.7764 14 16.5 14H4.5C4.22363 14 4 14.2236 4 14.5V16H3V9H6.00098V10.5V12.5C6.00098 12.7764 6.22461 13 6.50098 13H14.499C14.7754 13 14.999 12.7764 14.999 12.5V10.5V9H18V16ZM13.999 11V12H7.00098V11H13.999ZM7.00098 10V9H13.999V10H7.00098ZM18 3.5V7.5V8H14.499H6.50098H3V7.5V3.5V2H18V3.5ZM20 7H19V4H20V7Z" fill="white"/>
</svg>
