<svg width="22" height="20" viewBox="0 0 22 20" fill="none" xmlns="http://www.w3.org/2000/svg">
<path d="M14.1703 8.76883L16.5316 6.40285C17.0757 5.85866 18.4974 3.85479 17.8213 3.17869C17.1452 2.50259 15.1413 3.92423 14.5972 4.46842L12.2342 6.83144L5.81599 3.50267C5.70024 3.44229 5.55861 3.4644 5.4664 3.55661L4.30978 4.71323C4.24819 4.77485 4.21654 4.85983 4.22294 4.94645C4.22813 5.0186 4.25912 5.086 4.30978 5.13666C4.31991 5.14678 4.33069 5.15588 4.34205 5.16477L9.81014 9.25545L7.58591 11.4797L4.67118 10.4511C4.52462 10.3996 4.36333 10.4683 4.29882 10.6097L4.02674 11.2076C3.97484 11.322 4.00028 11.4558 4.08752 11.543C4.09498 11.5504 4.10262 11.5573 4.11088 11.5639L6.15828 13.225C5.56833 14.1007 5.04816 15.1253 5.46142 15.5386C5.87469 15.9519 6.89925 15.4317 7.77502 14.8417L9.43609 16.8891C9.44271 16.8974 9.44976 16.9052 9.45678 16.9123C9.54446 16.9999 9.67801 17.0252 9.79212 16.9731L10.3905 16.7014C10.5323 16.6373 10.6006 16.4756 10.5493 16.3292L9.52034 13.4141L11.7446 11.1898L15.8356 16.6584C15.8443 16.6695 15.8538 16.6807 15.8638 16.6906C15.9142 16.7411 15.982 16.7725 16.054 16.7775C16.1408 16.7841 16.2256 16.7522 16.2872 16.6906L17.4438 15.534C17.536 15.4418 17.5579 15.3 17.4979 15.1846L14.1703 8.76883Z" fill="#DB563B"/>
</svg>
