<svg width="13" height="20" viewBox="0 0 13 20" fill="none" xmlns="http://www.w3.org/2000/svg">
<path d="M0.000989419 9.99902C-0.00682343 9.84667 0.0322404 9.708 0.0966957 9.57225C0.143572 9.46971 0.20998 9.37498 0.295921 9.29099C0.309593 9.27537 0.325219 9.26072 0.342797 9.24607L10.3314 0.256522C10.7416 -0.11263 11.3744 -0.079426 11.7436 0.330744C12.1137 0.739936 12.0815 1.37277 11.6693 1.7429L2.49521 9.99902L11.6693 18.2551C12.0795 18.6282 12.1117 19.2591 11.7436 19.6693C11.3744 20.0794 10.7416 20.1126 10.3314 19.7435L0.342797 10.751C0.325219 10.7373 0.309593 10.7217 0.292014 10.7041C0.211934 10.624 0.149432 10.5342 0.100602 10.4365V10.4346C0.0341937 10.2979 0.000989413 10.1475 0.000989419 9.99902Z" fill="#DB563B"/>
</svg>
