<svg width="8" height="8" viewBox="0 0 8 8" fill="none" xmlns="http://www.w3.org/2000/svg">
<path d="M7.87972 4.17491C8.05941 4.3844 8.035 4.70035 7.82503 4.88006L4.33078 7.87499C4.2966 7.90526 4.25851 7.93066 4.2175 7.95019C4.14913 7.9834 4.07491 8 4.00069 8H3.99972C3.92549 8 3.85225 7.9834 3.78389 7.95117C3.78291 7.95117 3.78291 7.95117 3.78291 7.95117C3.74189 7.93163 3.70381 7.90526 3.66865 7.87401L0.174889 4.87957C-0.0350785 4.69986 -0.0594933 4.3844 0.120688 4.17491C0.300381 3.96541 0.616309 3.941 0.8253 4.1207L3.99972 6.84168L7.17462 4.12021C7.38361 3.94197 7.69807 3.96541 7.87972 4.17491ZM3.66865 3.87458C3.70381 3.90632 3.74385 3.93221 3.78584 3.95223C3.8542 3.98397 3.93526 3.99813 3.99972 4.00008C4.07394 4.00008 4.14913 3.98348 4.2175 3.95027C4.25851 3.93074 4.2966 3.90535 4.33078 3.87458L7.82503 0.879163C8.035 0.699458 8.05941 0.383996 7.87972 0.174502C7.69807 -0.0354799 7.38361 -0.0589196 7.17462 0.120298L3.99972 2.84128L0.8253 0.120298C0.616309 -0.0589196 0.300381 -0.0354798 0.120688 0.174502C-0.0594933 0.383996 -0.0350785 0.699458 0.174889 0.879163L3.66865 3.87458Z" fill="#DB563B"/>
</svg>
