<svg width="28" height="16" viewBox="0 0 28 16" fill="none" xmlns="http://www.w3.org/2000/svg">
<path d="M10.6047 5.65H8.28473V12H7.31973V5.65H4.99473V4.835H10.6047V5.65ZM17.1329 12H16.1729C16.0996 12 16.0413 11.9817 15.9979 11.945C15.9579 11.905 15.9246 11.8617 15.8979 11.815L13.9779 8.805C13.9513 8.885 13.9213 8.95333 13.8879 9.01L12.0179 11.815C11.9846 11.8617 11.9479 11.905 11.9079 11.945C11.8713 11.9817 11.8196 12 11.7529 12H10.8529L13.3179 8.32L10.9529 4.835H11.9179C11.9879 4.835 12.0396 4.84667 12.0729 4.87C12.1063 4.89333 12.1363 4.92667 12.1629 4.97L14.0329 7.84C14.0563 7.77 14.0913 7.69333 14.1379 7.61L15.9029 4.99C15.9296 4.94333 15.9613 4.90667 15.9979 4.88C16.0346 4.85 16.0779 4.835 16.1279 4.835H17.0529L14.6779 8.275L17.1329 12ZM23.0071 5.65H20.6871V12H19.7221V5.65H17.3971V4.835H23.0071V5.65Z" fill="#DB563B"/>
<rect x="0.5" y="0.5" width="27" height="15" rx="2.5" stroke="#DB563B"/>
</svg>
