<svg width="16" height="16" viewBox="0 0 16 16" fill="none" xmlns="http://www.w3.org/2000/svg">
<path d="M13.1704 0H2.82959C1.26953 0 0 1.26953 0 2.82959V13.1704C0 14.7305 1.26953 16 2.82959 16H13.1704C14.7305 16 16 14.7305 16 13.1704V2.82959C16 1.26953 14.7305 0 13.1704 0ZM15 13.1704C15 14.1792 14.1792 15 13.1704 15H2.82959C1.8208 15 1 14.1792 1 13.1704V2.82959C1 1.8208 1.8208 1 2.82959 1H13.1704C14.1792 1 15 1.8208 15 2.82959V13.1704ZM13 4.5C13 4.77637 12.7764 5 12.5 5H3.5C3.22363 5 3 4.77637 3 4.5C3 4.22363 3.22363 4 3.5 4H12.5C12.7764 4 13 4.22363 13 4.5ZM3 7.5C3 7.22363 3.22363 7 3.5 7H8.5C8.77637 7 9 7.22363 9 7.5C9 7.77637 8.77637 8 8.5 8H3.5C3.22363 8 3 7.77637 3 7.5ZM11 10.5C11 10.7764 10.7764 11 10.5 11H3.5C3.22363 11 3 10.7764 3 10.5C3 10.2236 3.22363 10 3.5 10H10.5C10.7764 10 11 10.2236 11 10.5Z" fill="#DB563B"/>
</svg>
