<svg width="16" height="16" viewBox="0 0 16 16" fill="none" xmlns="http://www.w3.org/2000/svg">
<path d="M5.20557 10.0142C5.33301 10.2593 5.23779 10.561 4.99316 10.6885C4.91943 10.7271 4.84033 10.7451 4.7627 10.7451C4.58203 10.7451 4.40771 10.647 4.31885 10.4761C4.11035 10.0752 4 9.62402 4 9.17041V8.31348C4 8.03711 4.22363 7.81348 4.5 7.81348C4.77637 7.81348 5 8.03711 5 8.31348V9.17041C5 9.46826 5.06934 9.75195 5.20557 10.0142ZM9.03662 1H11.0112C11.2876 1 11.5112 0.776367 11.5112 0.5C11.5112 0.223633 11.2876 0 11.0112 0H9.03662C8.76025 0 8.53662 0.223633 8.53662 0.5C8.53662 0.776367 8.76025 1 9.03662 1ZM4.92188 1.99121C5.0791 1.99121 5.23389 1.91699 5.33154 1.77881C5.63379 1.34863 6.10547 1.06885 6.62549 1.01074C6.8999 0.97998 7.09766 0.732422 7.06689 0.458008C7.03613 0.184082 6.79443 -0.0131836 6.51416 0.0166016C5.70947 0.106934 4.98047 0.539551 4.51318 1.20361C4.35449 1.42969 4.40869 1.74121 4.63477 1.90039C4.72217 1.96191 4.82275 1.99121 4.92188 1.99121ZM8.72852 11L6.76416 10.999L6.75439 11.499L6.82959 12H8.72852C9.00488 12 9.22852 11.7764 9.22852 11.5C9.22852 11.2236 9.00488 11 8.72852 11ZM13.6846 11.5C13.6846 11.7759 13.4746 11.9995 13.1982 11.9995V11.4995L13.1909 11.9995L12 11.9998V13.1704C12 14.7305 10.7305 16 9.17041 16H2.82959C1.26953 16 0 14.7305 0 13.1704V6.82959C0 5.26953 1.26953 4 2.82959 4H4V3.87158C4 3.59521 4.22363 3.37158 4.5 3.37158C4.77637 3.37158 5 3.59521 5 3.87158V4H9.17041C10.7305 4 12 5.26953 12 6.82959V11H13.1704C13.4468 11 13.6846 11.2236 13.6846 11.5ZM11 13.1704V11.9597C10.8214 11.8834 10.6963 11.7066 10.6963 11.5C10.6963 11.2934 10.8214 11.1166 11 11.0403V6.82959C11 5.8208 10.1792 5 9.17041 5H5V5.8457C5 6.12207 4.77637 6.3457 4.5 6.3457C4.22363 6.3457 4 6.12207 4 5.8457V5H2.82959C1.8208 5 1 5.8208 1 6.82959V13.1704C1 14.1792 1.8208 15 2.82959 15H9.17041C10.1792 15 11 14.1792 11 13.1704ZM15.5 7.86133C15.2236 7.86133 15 8.08496 15 8.36133V9.17041C15 9.48145 14.9248 9.77686 14.7769 10.0479C14.644 10.29 14.7329 10.5938 14.9756 10.7261C15.0518 10.7681 15.1338 10.7876 15.2148 10.7876C15.3916 10.7876 15.563 10.6938 15.6538 10.5273C15.8804 10.1138 16 9.64453 16 9.17041V8.36133C16 8.08496 15.7764 7.86133 15.5 7.86133ZM15.5 3.41943C15.2236 3.41943 15 3.64307 15 3.91943V5.89355C15 6.16992 15.2236 6.39355 15.5 6.39355C15.7764 6.39355 16 6.16992 16 5.89355V3.91943C16 3.64307 15.7764 3.41943 15.5 3.41943ZM15.3838 1.9458C15.6128 1.7915 15.6733 1.48096 15.5195 1.25146C15.0659 0.577637 14.3457 0.130371 13.543 0.0244141C13.2622 -0.0131836 13.0181 0.181152 12.9819 0.45459C12.9458 0.728516 13.1382 0.979492 13.4121 1.01563C13.9307 1.08398 14.396 1.37354 14.6895 1.81006C14.7861 1.95313 14.9438 2.03076 15.105 2.03076C15.2007 2.03076 15.2979 2.00342 15.3838 1.9458Z" fill="#DB563B"/>
</svg>
