<svg width="30" height="30" viewBox="0 0 30 30" fill="none" xmlns="http://www.w3.org/2000/svg">
<path d="M30 11.3863C30 12.3811 29.513 13.3765 28.539 13.952L24.2311 16.4971H15.0453V16.4721L24.2311 11.2984L15 5.99494V8.24543H8.25H6H5.25V11.6583L1.5 13.7198V4.49464H11.25V1.8802C11.25 0.226448 12.7742 -0.431572 14.0532 0.29084L28.5349 8.81837C29.5117 9.39344 30 10.3901 30 11.3863ZM24.75 21.7546H24H21.75H15V24.005L5.76892 18.7015L14.9547 13.5278V13.5028H5.76892L1.46106 16.048C0.48706 16.6235 0 17.6188 0 18.6137C0 19.6099 0.488342 20.6066 1.46515 21.1816L15.9468 29.7091C17.2258 30.4316 18.75 29.7735 18.75 28.1198V25.5053H28.5V16.2802L24.75 18.3416V21.7546Z" fill="white"/>
</svg>
