<svg width="21" height="18" viewBox="0 0 21 18" fill="none" xmlns="http://www.w3.org/2000/svg">
<path d="M20.5 2H19V0.5C19 0.223633 18.7764 0 18.5 0H2.5C2.22363 0 2 0.223633 2 0.5V2H0.5C0.223633 2 0 2.22363 0 2.5V6.5C0 6.77637 0.223633 7 0.5 7H2V7.5V15.5V17.5C2 17.7764 2.22363 18 2.5 18H5.5C5.77637 18 6 17.7764 6 17.5V16H15V17.5C15 17.7764 15.2236 18 15.5 18H18.5C18.7764 18 19 17.7764 19 17.5V15.5V7.5V7H20.5C20.7764 7 21 6.77637 21 6.5V2.5C21 2.22363 20.7764 2 20.5 2ZM2 6H1V3H2V6ZM5 17H3V16H4.5H5V17ZM5.5 15H5V14H16V15H15.5H5.5ZM18 17H16V16H16.5H18V17ZM18 15H17V13.5C17 13.2236 16.7764 13 16.5 13H4.5C4.22363 13 4 13.2236 4 13.5V15H3V8H6.00098V9.5V11.5C6.00098 11.7764 6.22461 12 6.50098 12H14.499C14.7754 12 14.999 11.7764 14.999 11.5V9.5V8H18V15ZM13.999 10V11H7.00098V10H13.999ZM7.00098 9V8H13.999V9H7.00098ZM18 2.5V6.5V7H14.499H6.50098H3V6.5V2.5V1H18V2.5ZM20 6H19V3H20V6Z" fill="#83909E"/>
</svg>
