<svg width="16" height="16" viewBox="0 0 16 16" fill="none" xmlns="http://www.w3.org/2000/svg">
<path d="M15 8H16V13.1704C16 14.7305 14.7305 16 13.1704 16H2.82959C1.26953 16 0 14.7305 0 13.1704V2.82959C0 1.26953 1.26953 0 2.82959 0H8V1H2.82959C1.8208 1 1 1.8208 1 2.82959V13.1704C1 14.1792 1.8208 15 2.82959 15H13.1704C14.1792 15 15 14.1792 15 13.1704V8ZM4.43457 8.02979L12.3179 0.146484C12.5132 -0.0488281 12.8296 -0.0488281 13.0249 0.146484L15.8535 2.9751C16.0488 3.17041 16.0488 3.48682 15.8535 3.68213L7.97021 11.5654C7.91644 11.6192 7.85278 11.6548 7.78571 11.679C7.78156 11.6805 7.77911 11.6846 7.7749 11.686L3.53223 13.1001C3.48047 13.1177 3.42676 13.126 3.37402 13.126C3.24365 13.126 3.11572 13.0747 3.02051 12.9795C2.88672 12.8457 2.83984 12.6475 2.8999 12.4678L4.31396 8.2251C4.31537 8.22089 4.31946 8.21844 4.32098 8.21429C4.34515 8.14722 4.3808 8.08356 4.43457 8.02979ZM6.69092 10.9932L5.00684 9.30908L4.16455 11.8354L6.69092 10.9932ZM5.49512 8.3833L7.6167 10.5049L14.793 3.32861L12.6714 1.20703L5.49512 8.3833Z" fill="white"/>
</svg>
