<svg width="12" height="12" viewBox="0 0 12 12" fill="none" xmlns="http://www.w3.org/2000/svg">
<rect width="12" height="12" rx="6" fill="#DB563B"/>
<path d="M6.58375 2.77V5.63C6.58375 5.93333 6.56875 6.23167 6.53875 6.525C6.50875 6.815 6.47042 7.12333 6.42375 7.45H5.58375C5.53708 7.12333 5.49875 6.815 5.46875 6.525C5.43875 6.23167 5.42375 5.93333 5.42375 5.63V2.77H6.58375ZM5.22875 9.32C5.22875 9.21667 5.24708 9.11833 5.28375 9.025C5.32375 8.93167 5.37708 8.85167 5.44375 8.785C5.51375 8.71833 5.59542 8.665 5.68875 8.625C5.78208 8.585 5.88208 8.565 5.98875 8.565C6.09208 8.565 6.19042 8.585 6.28375 8.625C6.37708 8.665 6.45708 8.71833 6.52375 8.785C6.59375 8.85167 6.64875 8.93167 6.68875 9.025C6.72875 9.11833 6.74875 9.21667 6.74875 9.32C6.74875 9.42667 6.72875 9.52667 6.68875 9.62C6.64875 9.71 6.59375 9.78833 6.52375 9.855C6.45708 9.92167 6.37708 9.97333 6.28375 10.01C6.19042 10.05 6.09208 10.07 5.98875 10.07C5.88208 10.07 5.78208 10.05 5.68875 10.01C5.59542 9.97333 5.51375 9.92167 5.44375 9.855C5.37708 9.78833 5.32375 9.71 5.28375 9.62C5.24708 9.52667 5.22875 9.42667 5.22875 9.32Z" fill="white"/>
</svg>
