<svg width="8" height="8" viewBox="0 0 8 8" fill="none" xmlns="http://www.w3.org/2000/svg">
<path d="M7.85352 7.14648C8.04883 7.3418 8.04883 7.6582 7.85352 7.85352C7.75586 7.95117 7.62793 8 7.5 8C7.37207 8 7.24414 7.95117 7.14648 7.85352L4 4.70703L0.853516 7.85352C0.755859 7.95117 0.62793 8 0.5 8C0.37207 8 0.244141 7.95117 0.146484 7.85352C-0.0488281 7.6582 -0.0488281 7.3418 0.146484 7.14648L3.29297 4L0.146484 0.853516C-0.0488281 0.658203 -0.0488281 0.341797 0.146484 0.146484C0.341797 -0.0488281 0.658203 -0.0488281 0.853516 0.146484L4 3.29297L7.14648 0.146484C7.3418 -0.048828 7.6582 -0.048828 7.85352 0.146484C8.04883 0.341797 8.04883 0.658203 7.85352 0.853516L4.70703 4L7.85352 7.14648Z" fill="#2C3640"/>
</svg>
