<svg width="20" height="21" viewBox="0 0 20 21" fill="none" xmlns="http://www.w3.org/2000/svg">
<path d="M12 10C12 11.1046 11.1046 12 10 12C8.89543 12 8 11.1046 8 10C8 8.89543 8.89543 8 10 8C11.1046 8 12 8.89543 12 10Z" fill="#83909E"/>
<path fill-rule="evenodd" clip-rule="evenodd" d="M1.82361 3H18.1763C19.1835 3 20 3.81647 20 4.82361V15.1764C20 16.1835 19.1835 17 18.1763 17H4L0 21V4.82361C0 3.81647 0.816467 3 1.82361 3ZM14 10C14 12.2091 12.2091 14 10 14C7.79086 14 6 12.2091 6 10C6 7.79086 7.79086 6 10 6C12.2091 6 14 7.79086 14 10Z" fill="#83909E"/>
</svg>
