<svg width="14" height="14" viewBox="0 0 14 14" fill="none" xmlns="http://www.w3.org/2000/svg">
<path d="M13.8535 13.1465C14.0488 13.3418 14.0488 13.6582 13.8535 13.8535C13.7559 13.9512 13.6279 14 13.5 14C13.3721 14 13.2441 13.9512 13.1465 13.8535L7 7.70703L0.853516 13.8535C0.755859 13.9512 0.62793 14 0.5 14C0.37207 14 0.244141 13.9512 0.146484 13.8535C-0.0488281 13.6582 -0.0488281 13.3418 0.146484 13.1465L6.29297 7L0.146484 0.853516C-0.0488281 0.658203 -0.0488281 0.341797 0.146484 0.146484C0.341797 -0.0488281 0.658203 -0.0488281 0.853516 0.146484L7 6.29297L13.1465 0.146484C13.3418 -0.048828 13.6582 -0.048828 13.8535 0.146484C14.0488 0.341797 14.0488 0.658203 13.8535 0.853516L7.70703 7L13.8535 13.1465Z" fill="white"/>
</svg>
