<svg width="16" height="16" viewBox="0 0 16 16" fill="none" xmlns="http://www.w3.org/2000/svg">
<path d="M15.6887 14.3675C15.3613 14.7411 14.5137 15.6129 13.5122 15.951L13.4544 15.9688H13.4352C12.7033 16.1111 7.75321 15.9332 3.747 11.752C-0.297784 7.53517 -0.162949 2.53545 0.125904 1.9839C0.607419 1.11211 1.66678 0.435983 2.09054 0.18689C2.22537 0.115741 2.37946 0.0623088 2.53355 0.0267341C3.16915 -0.0977775 3.747 0.240252 4.13218 0.471558L4.30552 0.578282C4.90262 0.880807 5.48047 4.03008 5.46122 4.27917C5.42264 4.70614 4.99895 5.0976 4.0166 5.91603C3.86251 6.0584 3.7855 6.27191 3.86251 6.46765C4.28627 7.4818 5.19154 8.74506 5.94273 9.51012C6.63609 10.2218 8.02288 11.3961 9.15925 11.9833C9.37116 12.0901 9.60226 12.0545 9.7756 11.9121C10.6424 11.2182 11.0854 10.8802 11.4898 10.8089L11.7017 10.7912C11.9713 10.8089 15.2842 11.6986 15.5539 12.2857L15.6502 12.4637C15.8813 12.9085 16.2858 13.7091 15.6887 14.3675Z" fill="#83909E"/>
</svg>
