<svg width="14" height="2" viewBox="0 0 14 2" fill="none" xmlns="http://www.w3.org/2000/svg">
<path d="M7 2C6.44775 2 6 1.55231 6 1C6 0.447693 6.44775 2.38129e-07 7 2.62268e-07C7.55231 2.8641e-07 8 0.447693 8 1C8 1.55231 7.55231 2 7 2ZM12 1C12 1.55231 12.4478 2 13 2C13.5523 2 14 1.55231 14 1C14 0.447693 13.5523 5.48679e-07 13 5.24537e-07C12.4478 5.00397e-07 12 0.447693 12 1ZM2 1C2 0.447693 1.55231 2.41421e-08 1 0C0.447754 -2.41394e-08 2.41421e-08 0.447693 0 1C-2.41421e-08 1.55231 0.447754 2 1 2C1.55231 2 2 1.55231 2 1Z" fill="white"/>
</svg>
