<svg width="16" height="16" viewBox="0 0 16 16" fill="none" xmlns="http://www.w3.org/2000/svg">
<path d="M6.476 16C6.39495 16 6.31389 15.9805 6.24016 15.9409C6.07757 15.854 5.976 15.6846 5.976 15.5V7.66113L0.120045 0.825195C-0.0069076 0.677246 -0.0357162 0.468262 0.0458267 0.291016C0.12737 0.11377 0.304616 0 0.499928 0H15.4999C15.6952 0 15.8725 0.11377 15.954 0.291016C16.0356 0.46875 16.0068 0.677246 15.8793 0.825684L9.976 7.70898V13.5C9.976 13.667 9.89251 13.8232 9.75335 13.916L6.75335 15.916C6.66985 15.9717 6.57317 16 6.476 16ZM1.58684 1L6.85589 7.15088C6.93352 7.24121 6.976 7.35693 6.976 7.47607V14.5659L8.976 13.2324V7.52393C8.976 7.4043 9.01897 7.28906 9.09661 7.19824L14.4125 1H1.58684Z" fill="#606A74"/>
</svg>
