<svg width="10" height="6" viewBox="0 0 10 6" fill="none" xmlns="http://www.w3.org/2000/svg">
<path d="M4.99935 0.000494694C4.92318 -0.00341161 4.85384 0.0161197 4.78597 0.0483463C4.7347 0.0717838 4.68734 0.104987 4.64535 0.147956C4.63753 0.154792 4.63021 0.162604 4.62289 0.171393L0.128257 5.16553C-0.0563132 5.37061 -0.0397117 5.68702 0.165366 5.87159C0.369956 6.05665 0.686363 6.04053 0.871421 5.83448L4.99935 1.24757L9.12728 5.83448C9.3138 6.03956 9.62923 6.05567 9.83431 5.87159C10.0394 5.68702 10.056 5.37061 9.87142 5.16553L5.37533 0.171393C5.36849 0.162604 5.36068 0.154792 5.35189 0.146003C5.31185 0.105963 5.26693 0.0747135 5.2181 0.0502994C5.14974 0.0170963 5.07357 0.000494694 4.99935 0.000494694Z" fill="#DB563B"/>
</svg>
