<svg width="22" height="18" viewBox="0 0 22 18" fill="none" xmlns="http://www.w3.org/2000/svg">
<path d="M16.8975 15.1392C17.0772 15.3486 17.0523 15.6646 16.8424 15.8438C15.2171 17.2344 13.1422 18 11 18C6.03958 18 2.00359 13.9624 2.00359 9V7.20703L0.853175 8.35791C0.65794 8.55322 0.34166 8.55322 0.146426 8.35791C-0.0488086 8.1626 -0.0488086 7.84619 0.146426 7.65088L2.15002 5.64648C2.34525 5.45117 2.66153 5.45117 2.85677 5.64648L4.86036 7.65088C5.0556 7.84619 5.0556 8.1626 4.86036 8.35791C4.76275 8.45557 4.63487 8.50439 4.50699 8.50439C4.37911 8.50439 4.25123 8.45557 4.15361 8.35791L3.00319 7.20703V9C3.00319 13.4111 6.59063 17 11 17C12.904 17 14.7485 16.3193 16.1932 15.084C16.4012 14.9043 16.7184 14.9292 16.8975 15.1392ZM21.8536 9.64209C21.6583 9.44678 21.3421 9.44678 21.1468 9.64209L19.9964 10.793V9C19.9964 4.0376 15.9604 0 11 0C8.85779 0 6.78293 0.765625 5.15761 2.15625C4.94773 2.33545 4.92284 2.65137 5.10245 2.86084C5.20105 2.97656 5.34113 3.03613 5.48218 3.03613C5.59737 3.03613 5.71305 2.99658 5.80676 2.91602C7.2515 1.68066 9.09598 1 11 1C15.4094 1 18.9968 4.58887 18.9968 9V10.793L17.8464 9.64209C17.6512 9.44678 17.3349 9.44678 17.1396 9.64209C16.9444 9.8374 16.9444 10.1538 17.1396 10.3491L19.1432 12.3535C19.2408 12.4512 19.3687 12.5 19.4966 12.5C19.6245 12.5 19.7524 12.4512 19.85 12.3535L21.8536 10.3491C22.0488 10.1538 22.0488 9.8374 21.8536 9.64209Z" fill="white"/>
</svg>
