<svg width="25" height="20" viewBox="0 0 25 20" fill="none" xmlns="http://www.w3.org/2000/svg">
<path d="M24.5 16C23.1582 16 22.5908 16.6475 22.1348 17.167C21.7109 17.6504 21.4043 18 20.5 18C20.2117 18 19.997 17.9543 19.807 17.8902L22.8926 9.82422C22.9463 9.68359 22.9346 9.52734 22.8594 9.39648C22.7852 9.2666 22.6562 9.17676 22.5078 9.15234L20 8.7356V3.5C20 3.22363 19.7764 3 19.5 3H18V1.5C18 1.22363 17.7764 1 17.5 1H7.5C7.22363 1 7 1.22363 7 1.5V3H5.5C5.22363 3 5 3.22363 5 3.5V8.73566L2.49268 9.15234C2.34473 9.17676 2.21533 9.2666 2.14111 9.39648C2.06641 9.52734 2.0542 9.68359 2.10791 9.82422L5.19299 17.8902C5.00299 17.9543 4.78827 18 4.5 18C3.5957 18 3.28955 17.6504 2.86523 17.167C2.40918 16.6475 1.8418 16 0.5 16C0.223633 16 0 16.2236 0 16.5C0 16.7764 0.223633 17 0.5 17C1.38867 17 1.69287 17.3467 2.11328 17.8262C2.57178 18.3496 3.14258 19 4.5 19C5.85742 19 6.42773 18.3496 6.88672 17.8262C7.30762 17.3467 7.61133 17 8.5 17C9.38867 17 9.69238 17.3467 10.1133 17.8262C10.5723 18.3496 11.1426 19 12.5 19C13.8574 19 14.4277 18.3496 14.8867 17.8262C15.3076 17.3467 15.6113 17 16.5 17C17.3887 17 17.6924 17.3467 18.1133 17.8262C18.5723 18.3496 19.1426 19 20.5 19C21.8574 19 22.4277 18.3496 22.8867 17.8262C23.3076 17.3467 23.6113 17 24.5 17C24.7764 17 25 16.7764 25 16.5C25 16.2236 24.7764 16 24.5 16ZM8 2H17V3H8V2ZM6 4H7.5H17.5H19V8.56946L12.582 7.50293C12.5547 7.49823 12.5276 7.50708 12.5001 7.50714C12.4725 7.50708 12.4456 7.49823 12.418 7.50293L6 8.56946V4ZM10.8652 17.167C10.4092 16.6475 9.8418 16 8.5 16C7.1582 16 6.59082 16.6475 6.13477 17.167C6.09869 17.2081 6.06506 17.2417 6.03021 17.2808L3.26025 10.0381L12 8.58594V17.9461C11.468 17.8354 11.1973 17.5457 10.8652 17.167ZM16.5 16C15.1582 16 14.5908 16.6475 14.1348 17.167C13.8027 17.5457 13.532 17.8354 13 17.9461V8.58594L21.7402 10.0381L18.9698 17.2808C18.9349 17.2417 18.9013 17.2081 18.8652 17.167C18.4092 16.6475 17.8418 16 16.5 16ZM10 5.5C10 5.77637 9.77637 6 9.5 6H7.5C7.22363 6 7 5.77637 7 5.5C7 5.22363 7.22363 5 7.5 5H9.5C9.77637 5 10 5.22363 10 5.5ZM13.5 6H11.5C11.2236 6 11 5.77637 11 5.5C11 5.22363 11.2236 5 11.5 5H13.5C13.7764 5 14 5.22363 14 5.5C14 5.77637 13.7764 6 13.5 6ZM15 5.5C15 5.22363 15.2236 5 15.5 5H17.5C17.7764 5 18 5.22363 18 5.5C18 5.77637 17.7764 6 17.5 6H15.5C15.2236 6 15 5.77637 15 5.5Z" fill="white"/>
</svg>
