<svg width="12" height="12" viewBox="0 0 12 12" fill="none" xmlns="http://www.w3.org/2000/svg">
<path d="M6 0C2.68628 0 0 2.68628 0 6C0 9.31366 2.68628 12 6 12C9.31366 12 12 9.31366 12 6C12 2.68628 9.31366 0 6 0ZM6 11C3.24298 11 1 8.75696 1 6C1 3.24298 3.24298 1 6 1C8.75696 1 11 3.24298 11 6C11 8.75696 8.75696 11 6 11ZM8.35364 4.35394L6.70715 6.00043L8.35364 7.64691C8.54895 7.84222 8.54895 8.15863 8.35364 8.35394C8.25598 8.4516 8.12805 8.50043 8.00012 8.50043C7.87219 8.50043 7.74426 8.4516 7.64661 8.35394L6.00012 6.70746L4.35364 8.35394C4.25598 8.4516 4.12805 8.50043 4.00012 8.50043C3.87219 8.50043 3.74426 8.4516 3.64661 8.35394C3.45129 8.15863 3.45129 7.84222 3.64661 7.64691L5.29309 6.00043L3.64661 4.35394C3.45129 4.15863 3.45129 3.84222 3.64661 3.64691C3.84192 3.4516 4.15833 3.4516 4.35364 3.64691L6.00012 5.2934L7.64661 3.64691C7.84192 3.4516 8.15833 3.4516 8.35364 3.64691C8.54895 3.84222 8.54895 4.15863 8.35364 4.35394Z" fill="#DB563B"/>
</svg>
