<svg width="16" height="16" viewBox="0 0 16 16" fill="none" xmlns="http://www.w3.org/2000/svg">
<path d="M15.8535 4.97705L11.0229 0.146484C10.9292 0.0527344 10.8022 0 10.6694 0H9.5H4.5H1.58496C0.710938 0 0 0.710938 0 1.58496V14.415C0 15.2891 0.710938 16 1.58496 16H4.5H11.5H14.415C15.2891 16 16 15.2891 16 14.415V5.33057C16 5.19775 15.9473 5.0708 15.8535 4.97705ZM9 1V4H5V1H9ZM5 15V11H11V15H5ZM15 14.415C15 14.7378 14.7378 15 14.415 15H12V10.5C12 10.2236 11.7764 10 11.5 10H4.5C4.22363 10 4 10.2236 4 10.5V15H1.58496C1.26221 15 1 14.7378 1 14.415V1.58496C1 1.26221 1.26221 1 1.58496 1H4V4.5C4 4.77637 4.22363 5 4.5 5H9.5C9.77637 5 10 4.77637 10 4.5V1H10.4624L15 5.5376V14.415Z" fill="white"/>
</svg>
