<svg width="16" height="16" viewBox="0 0 16 16" fill="none" xmlns="http://www.w3.org/2000/svg">
<path d="M6.5 9H3.5C3.22363 9 3 9.22363 3 9.5V12.5C3 12.7764 3.22363 13 3.5 13H6.5C6.77637 13 7 12.7764 7 12.5V9.5C7 9.22363 6.77637 9 6.5 9ZM6 12H4V10H6V12ZM9 12.5C9 12.7764 9.22363 13 9.5 13H12.5C12.7764 13 13 12.7764 13 12.5V9.5C13 9.22363 12.7764 9 12.5 9H9.5C9.22363 9 9 9.22363 9 9.5V12.5ZM10 10H12V12H10V10ZM16 2.82959V13.1704C16 14.7305 14.7305 16 13.1704 16H2.82959C1.26953 16 0 14.7305 0 13.1704V8H1V13.1704C1 14.1792 1.8208 15 2.82959 15H13.1704C14.1792 15 15 14.1792 15 13.1704V2.82959C15 1.8208 14.1792 1 13.1704 1H8V0H13.1704C14.7305 0 16 1.26953 16 2.82959ZM9.5 7H12.5C12.7764 7 13 6.77637 13 6.5V3.5C13 3.22363 12.7764 3 12.5 3H9.5C9.22363 3 9 3.22363 9 3.5V6.5C9 6.77637 9.22363 7 9.5 7ZM10 4H12V6H10V4ZM0 3.5C0 3.22363 0.223633 3 0.5 3H3V0.5C3 0.223633 3.22363 0 3.5 0C3.77637 0 4 0.223633 4 0.5V3H6.5C6.77637 3 7 3.22363 7 3.5C7 3.77637 6.77637 4 6.5 4H4V6.5C4 6.77637 3.77637 7 3.5 7C3.22363 7 3 6.77637 3 6.5V4H0.5C0.223633 4 0 3.77637 0 3.5Z" fill="#DB563B"/>
</svg>
