<svg width="15" height="14" viewBox="0 0 15 14" fill="none" xmlns="http://www.w3.org/2000/svg">
<path d="M3.14648 6.85352C2.95117 6.6582 2.95117 6.3418 3.14648 6.14648C3.3418 5.95117 3.6582 5.95117 3.85352 6.14648L7 9.29297V0.5C7 0.223633 7.22363 0 7.5 0C7.77637 0 8 0.223633 8 0.5V9.29297L11.1465 6.14648C11.3418 5.95117 11.6582 5.95117 11.8535 6.14648C12.0488 6.3418 12.0488 6.6582 11.8535 6.85352L7.85413 10.8529C7.80786 10.8993 7.75244 10.9361 7.69092 10.9615C7.62982 10.9868 7.56506 11 7.5 11C7.43494 11 7.37018 10.9868 7.30908 10.9615C7.24756 10.9361 7.19214 10.8993 7.14587 10.8529L3.14648 6.85352ZM14.5 13H0.5C0.223633 13 0 13.2236 0 13.5C0 13.7764 0.223633 14 0.5 14H14.5C14.7764 14 15 13.7764 15 13.5C15 13.2236 14.7764 13 14.5 13Z" fill="#DB563B"/>
</svg>
