<svg width="18" height="14" viewBox="0 0 18 14" fill="none" xmlns="http://www.w3.org/2000/svg">
<path d="M13.1998 1.87952C12.0401 0.642456 10.52 0.0238037 9 0.0238037C7.47998 0.0238037 5.95996 0.642456 4.80017 1.87952L0 6.99988L4.80017 12.1205C5.95996 13.3575 7.47998 13.9762 9 13.9762C10.52 13.9762 12.0401 13.3575 13.1998 12.1205L18 6.99988L13.1998 1.87952ZM12.4703 11.4364C11.5396 12.4293 10.3071 12.9762 9 12.9762C7.69293 12.9762 6.46051 12.4293 5.52979 11.4364L1.37073 6.99988L5.52972 2.5636C6.46051 1.57068 7.69293 1.0238 9 1.0238C10.3071 1.0238 11.5396 1.57068 12.4703 2.5636L16.6293 6.99988L12.4703 11.4364ZM9 3.99988C7.34314 3.99988 6 5.34314 6 6.99988C6 8.65686 7.34314 9.99988 9 9.99988C10.6569 9.99988 12 8.65686 12 6.99988C12 5.34314 10.6569 3.99988 9 3.99988ZM9 8.99988C7.89722 8.99988 7 8.10266 7 6.99988C7 5.89709 7.89722 4.99988 9 4.99988C10.1028 4.99988 11 5.89709 11 6.99988C11 8.10266 10.1028 8.99988 9 8.99988Z" fill="#DB563B"/>
</svg>
