<svg width="18" height="18" viewBox="0 0 18 18" fill="none" xmlns="http://www.w3.org/2000/svg">
<path d="M9 15H2V16H0V18H11V16H9V15ZM3 17V16H8V17H3ZM9.14209 6.44293L10.7525 4.13159L11.4384 4.6095L12.1765 3.55017L7.08124 0L6.34314 1.05939L7.02905 1.53729L2.74316 7.68854L2.05731 7.21063L1.31915 8.27002L6.41443 11.8201L7.15253 10.7607L6.46667 10.2828L8.32281 7.61877L17.1807 13.7905L18 12.6147L9.14209 6.44293ZM8.32159 5.87128L8.07397 6.22662L7.50232 7.04712L5.64618 9.71112L5.47974 9.95007L3.39716 8.49908L3.5636 8.26019L7.84955 2.10901L8.01599 1.87006L10.0984 3.32104L9.93201 3.55994L8.32159 5.87128Z" fill="#DB563B"/>
</svg>
