<svg width="21" height="20" viewBox="0 0 21 20" fill="none" xmlns="http://www.w3.org/2000/svg">
<path d="M20.636 10.0449L16.9866 9.01727V7.41992C16.9866 6.63672 16.3143 6 15.4877 6C14.6613 6 13.989 6.63672 13.989 7.41992V8.17322L12.0068 7.61511L12.0042 3.75586C12.0042 3.71875 11.8452 0 10.5063 0C9.16852 0 9.00946 3.71875 9.00946 3.75586V7.61053L7.01105 8.17328V7.41992C7.01105 6.63672 6.33875 6 5.51227 6C4.68573 6 4.01343 6.63672 4.01343 7.41992V9.0174L0.364441 10.0449C0.148804 10.1055 0 10.3027 0 10.5264V12.3682C0 12.5078 0.0585327 12.6416 0.161987 12.7363C0.254211 12.8213 0.375183 12.8682 0.499634 12.8682C0.513733 12.8682 0.527893 12.8672 0.542053 12.8662L9.00946 12.1398V14.3264L5.61957 16.3799C5.47028 16.4707 5.37854 16.6328 5.37854 16.8076V17.5C5.37854 17.7764 5.60199 18 5.87817 18H9.31091C9.52667 19.04 9.89081 20 10.5063 20C11.1223 20 11.4867 19.04 11.7026 18H15.1218C15.398 18 15.6215 17.7764 15.6215 17.5V16.8076C15.6215 16.6328 15.5297 16.4707 15.3804 16.3799L12.0042 14.3347V12.141L20.4575 12.8662C20.4721 12.8672 20.4858 12.8682 20.5004 12.8682C20.6253 12.8682 20.7453 12.8213 20.838 12.7363C20.9415 12.6416 21 12.5078 21 12.3682V10.5264C21 10.3027 20.8507 10.1055 20.636 10.0449ZM14.9882 7.41992C14.9882 7.18848 15.2126 7 15.4877 7C15.7629 7 15.9874 7.18848 15.9874 7.41992V8.73596L14.9882 8.45459V7.41992ZM5.01263 7.41992C5.01263 7.18848 5.23706 7 5.51227 7C5.78741 7 6.01184 7.18848 6.01184 7.41992V8.45465L5.01263 8.73602V7.41992ZM6.52509 17L9.01215 15.4935C9.02057 15.6901 9.05389 16.2943 9.14496 17H6.52509ZM11.8687 17C11.9589 16.3015 11.9924 15.7044 12.0012 15.5016L14.4749 17H11.8687ZM20.0008 11.8232L11.5504 11.0986C11.5431 11.0983 11.5366 11.1017 11.5293 11.1017C11.5206 11.1013 11.5134 11.0967 11.5046 11.0967C11.4529 11.0967 11.4058 11.1115 11.3589 11.126C11.3579 11.1264 11.3567 11.1263 11.3556 11.1267C11.2372 11.1643 11.1422 11.243 11.0804 11.3483C11.0753 11.3566 11.0689 11.3634 11.0643 11.3721C11.0416 11.4163 11.03 11.4646 11.0214 11.5153C11.019 11.5289 11.011 11.5397 11.0098 11.5537C11.0095 11.5579 11.0114 11.5615 11.0112 11.5657C11.0105 11.5765 11.0049 11.5857 11.0049 11.5967V15.4238C11.0049 16.2666 10.7591 17.8379 10.5063 18.6289C10.2546 17.8379 10.0087 16.2666 10.0087 15.4238V11.5967C10.0087 11.3693 9.85443 11.1854 9.64709 11.1245C9.64264 11.123 9.63782 11.1232 9.6333 11.1218C9.59259 11.1111 9.55316 11.0967 9.50909 11.0967C9.49884 11.0967 9.49036 11.1019 9.48029 11.1025C9.46973 11.1025 9.46021 11.0979 9.44958 11.0986L0.999207 11.8232V10.9053L9.62811 8.47559C9.6347 8.47369 9.63916 8.46869 9.64557 8.46661C9.8537 8.40625 10.0087 8.22205 10.0087 7.99414V3.75586C10.0087 2.92773 10.2741 1.72754 10.5063 1.19824C10.7396 1.72656 11.0049 2.92773 11.0049 3.75586L11.0079 7.99414C11.0079 8.00513 11.0134 8.01428 11.0141 8.02509C11.0163 8.05981 11.0251 8.09155 11.0342 8.12451C11.0426 8.15503 11.0495 8.18494 11.0633 8.21283C11.0773 8.24127 11.0964 8.26501 11.1155 8.29034C11.135 8.31628 11.1531 8.3418 11.1773 8.3634C11.2 8.38385 11.2264 8.39825 11.253 8.41443C11.2824 8.43237 11.3107 8.44952 11.3438 8.46112C11.354 8.46472 11.3613 8.4726 11.3719 8.47559L20.0008 10.9053V11.8232Z" fill="white"/>
</svg>
