<svg width="10" height="6" viewBox="0 0 10 6" fill="none" xmlns="http://www.w3.org/2000/svg">
<path d="M4.99935 5.99989C4.92318 6.00379 4.85384 5.98426 4.78597 5.95203C4.7347 5.9286 4.68734 5.89539 4.64535 5.85242C4.63753 5.84559 4.63021 5.83778 4.62289 5.82899L0.128257 0.834846C-0.0563132 0.629768 -0.0397117 0.313362 0.165366 0.128791C0.369956 -0.0562672 0.686363 -0.040154 0.871421 0.165901L4.99935 4.75281L9.12728 0.165901C9.3138 -0.0391774 9.62923 -0.0552907 9.83431 0.128791C10.0394 0.313362 10.056 0.629768 9.87142 0.834846L5.37533 5.82899C5.36849 5.83778 5.36068 5.84559 5.35189 5.85438C5.31185 5.89442 5.26693 5.92567 5.2181 5.95008C5.14974 5.98328 5.07357 5.99989 4.99935 5.99989Z" fill="white"/>
</svg>
