<svg width="16" height="16" viewBox="0 0 16 16" fill="none" xmlns="http://www.w3.org/2000/svg">
<path d="M15.8535 15.1465L10.5776 9.87012C11.4632 8.82434 12 7.47455 12 6C12 2.69141 9.30859 0 6 0C2.69141 0 0 2.69141 0 6C0 9.30859 2.69141 12 6 12C7.47473 12 8.82477 11.463 9.87061 10.5772L15.1465 15.8535C15.2441 15.9512 15.3721 16 15.5 16C15.6279 16 15.7559 15.9512 15.8535 15.8535C16.0488 15.6582 16.0488 15.3418 15.8535 15.1465ZM1 6C1 3.24316 3.24316 1 6 1C8.75684 1 11 3.24316 11 6C11 8.75684 8.75684 11 6 11C3.24316 11 1 8.75684 1 6Z" fill="#4B66AD"/>
</svg>
